<?xml version="1.0" encoding="utf-8" standalone="no"?>
<!DOCTYPE svg PUBLIC "-//W3C//DTD SVG 1.1//EN"
  "http://www.w3.org/Graphics/SVG/1.1/DTD/svg11.dtd">
<svg xmlns:xlink="http://www.w3.org/1999/xlink" width="518.4pt" height="273.6pt" viewBox="0 0 518.4 273.6" xmlns="http://www.w3.org/2000/svg" version="1.1">
 <metadata>
  <rdf:RDF xmlns:dc="http://purl.org/dc/elements/1.1/" xmlns:cc="http://creativecommons.org/ns#" xmlns:rdf="http://www.w3.org/1999/02/22-rdf-syntax-ns#">
   <cc:Work>
    <dc:type rdf:resource="http://purl.org/dc/dcmitype/StillImage"/>
    <dc:format>image/svg+xml</dc:format>
    <dc:creator>
     <cc:Agent>
      <dc:title>Matplotlib v3.11.1, https://matplotlib.org/</dc:title>
     </cc:Agent>
    </dc:creator>
   </cc:Work>
  </rdf:RDF>
 </metadata>
 <defs>
  <style type="text/css">*{stroke-linejoin: round; stroke-linecap: butt}</style>
 </defs>
 <g id="figure_1">
  <g id="patch_1">
   <path d="M 0 273.6 
L 518.4 273.6 
L 518.4 0 
L 0 0 
z
" style="fill: #ffffff"/>
  </g>
  <g id="axes_1">
   <g id="patch_2">
    <path d="M 39.224459 171.055165 
L 255.314252 171.055165 
L 255.314252 33.500837 
L 39.224459 33.500837 
z
" style="fill: #ffffff"/>
   </g>
   <g id="QuadMesh_1">
    <path d="M 21.216976 182.518025 
L 57.231942 182.518025 
L 57.231942 159.592304 
L 21.216976 159.592304 
L 21.216976 182.518025 
" clip-path="url(#pda4df9793b)" style="fill: #fee434; stroke: #fee434"/>
    <path d="M 57.231942 182.518025 
L 93.246907 182.518025 
L 93.246907 159.592304 
L 57.231942 159.592304 
L 57.231942 182.518025 
" clip-path="url(#pda4df9793b)" style="fill: #f2da44; stroke: #f2da44"/>
    <path d="M 93.246907 182.518025 
L 129.261873 182.518025 
L 129.261873 159.592304 
L 93.246907 159.592304 
L 93.246907 182.518025 
" clip-path="url(#pda4df9793b)" style="fill: #888578; stroke: #888578"/>
    <path d="M 129.261873 182.518025 
L 165.276838 182.518025 
L 165.276838 159.592304 
L 129.261873 159.592304 
L 129.261873 182.518025 
" clip-path="url(#pda4df9793b)" style="fill: #002758; stroke: #002758"/>
    <path d="M 165.276838 182.518025 
L 201.291804 182.518025 
L 201.291804 159.592304 
L 165.276838 159.592304 
L 165.276838 182.518025 
" clip-path="url(#pda4df9793b)" style="fill: #00224e; stroke: #00224e"/>
    <path d="M 201.291804 182.518025 
L 237.306769 182.518025 
L 237.306769 159.592304 
L 201.291804 159.592304 
L 201.291804 182.518025 
" clip-path="url(#pda4df9793b)" style="fill: #00224e; stroke: #00224e"/>
    <path d="M 237.306769 182.518025 
L 273.321735 182.518025 
L 273.321735 159.592304 
L 237.306769 159.592304 
L 237.306769 182.518025 
" clip-path="url(#pda4df9793b)" style="fill: #00224e; stroke: #00224e"/>
    <path d="M 21.216976 159.592304 
L 57.231942 159.592304 
L 57.231942 136.666583 
L 21.216976 136.666583 
L 21.216976 159.592304 
" clip-path="url(#pda4df9793b)" style="fill: #fee434; stroke: #fee434"/>
    <path d="M 57.231942 159.592304 
L 93.246907 159.592304 
L 93.246907 136.666583 
L 57.231942 136.666583 
L 57.231942 159.592304 
" clip-path="url(#pda4df9793b)" style="fill: #f7de3e; stroke: #f7de3e"/>
    <path d="M 93.246907 159.592304 
L 129.261873 159.592304 
L 129.261873 136.666583 
L 93.246907 136.666583 
L 93.246907 159.592304 
" clip-path="url(#pda4df9793b)" style="fill: #b8aa6e; stroke: #b8aa6e"/>
    <path d="M 129.261873 159.592304 
L 165.276838 159.592304 
L 165.276838 136.666583 
L 129.261873 136.666583 
L 129.261873 159.592304 
" clip-path="url(#pda4df9793b)" style="fill: #123570; stroke: #123570"/>
    <path d="M 165.276838 159.592304 
L 201.291804 159.592304 
L 201.291804 136.666583 
L 165.276838 136.666583 
L 165.276838 159.592304 
" clip-path="url(#pda4df9793b)" style="fill: #00234f; stroke: #00234f"/>
    <path d="M 201.291804 159.592304 
L 237.306769 159.592304 
L 237.306769 136.666583 
L 201.291804 136.666583 
L 201.291804 159.592304 
" clip-path="url(#pda4df9793b)" style="fill: #00224e; stroke: #00224e"/>
    <path d="M 237.306769 159.592304 
L 273.321735 159.592304 
L 273.321735 136.666583 
L 237.306769 136.666583 
L 237.306769 159.592304 
" clip-path="url(#pda4df9793b)" style="fill: #00224e; stroke: #00224e"/>
    <path d="M 21.216976 136.666583 
L 57.231942 136.666583 
L 57.231942 113.740861 
L 21.216976 113.740861 
L 21.216976 136.666583 
" clip-path="url(#pda4df9793b)" style="fill: #fee434; stroke: #fee434"/>
    <path d="M 57.231942 136.666583 
L 93.246907 136.666583 
L 93.246907 113.740861 
L 57.231942 113.740861 
L 57.231942 136.666583 
" clip-path="url(#pda4df9793b)" style="fill: #f8df3c; stroke: #f8df3c"/>
    <path d="M 93.246907 136.666583 
L 129.261873 136.666583 
L 129.261873 113.740861 
L 93.246907 113.740861 
L 93.246907 136.666583 
" clip-path="url(#pda4df9793b)" style="fill: #c3b369; stroke: #c3b369"/>
    <path d="M 129.261873 136.666583 
L 165.276838 136.666583 
L 165.276838 113.740861 
L 129.261873 113.740861 
L 129.261873 136.666583 
" clip-path="url(#pda4df9793b)" style="fill: #233c6e; stroke: #233c6e"/>
    <path d="M 165.276838 136.666583 
L 201.291804 136.666583 
L 201.291804 113.740861 
L 165.276838 113.740861 
L 165.276838 136.666583 
" clip-path="url(#pda4df9793b)" style="fill: #00234f; stroke: #00234f"/>
    <path d="M 201.291804 136.666583 
L 237.306769 136.666583 
L 237.306769 113.740861 
L 201.291804 113.740861 
L 201.291804 136.666583 
" clip-path="url(#pda4df9793b)" style="fill: #00224e; stroke: #00224e"/>
    <path d="M 237.306769 136.666583 
L 273.321735 136.666583 
L 273.321735 113.740861 
L 237.306769 113.740861 
L 237.306769 136.666583 
" clip-path="url(#pda4df9793b)" style="fill: #00224e; stroke: #00224e"/>
    <path d="M 21.216976 113.740861 
L 57.231942 113.740861 
L 57.231942 90.81514 
L 21.216976 90.81514 
L 21.216976 113.740861 
" clip-path="url(#pda4df9793b)" style="fill: #fee434; stroke: #fee434"/>
    <path d="M 57.231942 113.740861 
L 93.246907 113.740861 
L 93.246907 90.81514 
L 57.231942 90.81514 
L 57.231942 113.740861 
" clip-path="url(#pda4df9793b)" style="fill: #f8df3c; stroke: #f8df3c"/>
    <path d="M 93.246907 113.740861 
L 129.261873 113.740861 
L 129.261873 90.81514 
L 93.246907 90.81514 
L 93.246907 113.740861 
" clip-path="url(#pda4df9793b)" style="fill: #c8b866; stroke: #c8b866"/>
    <path d="M 129.261873 113.740861 
L 165.276838 113.740861 
L 165.276838 90.81514 
L 129.261873 90.81514 
L 129.261873 113.740861 
" clip-path="url(#pda4df9793b)" style="fill: #2a3f6d; stroke: #2a3f6d"/>
    <path d="M 165.276838 113.740861 
L 201.291804 113.740861 
L 201.291804 90.81514 
L 165.276838 90.81514 
L 165.276838 113.740861 
" clip-path="url(#pda4df9793b)" style="fill: #002451; stroke: #002451"/>
    <path d="M 201.291804 113.740861 
L 237.306769 113.740861 
L 237.306769 90.81514 
L 201.291804 90.81514 
L 201.291804 113.740861 
" clip-path="url(#pda4df9793b)" style="fill: #00224e; stroke: #00224e"/>
    <path d="M 237.306769 113.740861 
L 273.321735 113.740861 
L 273.321735 90.81514 
L 237.306769 90.81514 
L 237.306769 113.740861 
" clip-path="url(#pda4df9793b)" style="fill: #00224e; stroke: #00224e"/>
    <path d="M 21.216976 90.81514 
L 57.231942 90.81514 
L 57.231942 67.889419 
L 21.216976 67.889419 
L 21.216976 90.81514 
" clip-path="url(#pda4df9793b)" style="fill: #fee434; stroke: #fee434"/>
    <path d="M 57.231942 90.81514 
L 93.246907 90.81514 
L 93.246907 67.889419 
L 57.231942 67.889419 
L 57.231942 90.81514 
" clip-path="url(#pda4df9793b)" style="fill: #f8df3c; stroke: #f8df3c"/>
    <path d="M 93.246907 90.81514 
L 129.261873 90.81514 
L 129.261873 67.889419 
L 93.246907 67.889419 
L 93.246907 90.81514 
" clip-path="url(#pda4df9793b)" style="fill: #ccba64; stroke: #ccba64"/>
    <path d="M 129.261873 90.81514 
L 165.276838 90.81514 
L 165.276838 67.889419 
L 129.261873 67.889419 
L 129.261873 90.81514 
" clip-path="url(#pda4df9793b)" style="fill: #2f426d; stroke: #2f426d"/>
    <path d="M 165.276838 90.81514 
L 201.291804 90.81514 
L 201.291804 67.889419 
L 165.276838 67.889419 
L 165.276838 90.81514 
" clip-path="url(#pda4df9793b)" style="fill: #002451; stroke: #002451"/>
    <path d="M 201.291804 90.81514 
L 237.306769 90.81514 
L 237.306769 67.889419 
L 201.291804 67.889419 
L 201.291804 90.81514 
" clip-path="url(#pda4df9793b)" style="fill: #00224e; stroke: #00224e"/>
    <path d="M 237.306769 90.81514 
L 273.321735 90.81514 
L 273.321735 67.889419 
L 237.306769 67.889419 
L 237.306769 90.81514 
" clip-path="url(#pda4df9793b)" style="fill: #00224e; stroke: #00224e"/>
    <path d="M 21.216976 67.889419 
L 57.231942 67.889419 
L 57.231942 44.963698 
L 21.216976 44.963698 
L 21.216976 67.889419 
" clip-path="url(#pda4df9793b)" style="fill: #fee434; stroke: #fee434"/>
    <path d="M 57.231942 67.889419 
L 93.246907 67.889419 
L 93.246907 44.963698 
L 57.231942 44.963698 
L 57.231942 67.889419 
" clip-path="url(#pda4df9793b)" style="fill: #f9e03a; stroke: #f9e03a"/>
    <path d="M 93.246907 67.889419 
L 129.261873 67.889419 
L 129.261873 44.963698 
L 93.246907 44.963698 
L 93.246907 67.889419 
" clip-path="url(#pda4df9793b)" style="fill: #cfbd62; stroke: #cfbd62"/>
    <path d="M 129.261873 67.889419 
L 165.276838 67.889419 
L 165.276838 44.963698 
L 129.261873 44.963698 
L 129.261873 67.889419 
" clip-path="url(#pda4df9793b)" style="fill: #33446d; stroke: #33446d"/>
    <path d="M 165.276838 67.889419 
L 201.291804 67.889419 
L 201.291804 44.963698 
L 165.276838 44.963698 
L 165.276838 67.889419 
" clip-path="url(#pda4df9793b)" style="fill: #002451; stroke: #002451"/>
    <path d="M 201.291804 67.889419 
L 237.306769 67.889419 
L 237.306769 44.963698 
L 201.291804 44.963698 
L 201.291804 67.889419 
" clip-path="url(#pda4df9793b)" style="fill: #00224e; stroke: #00224e"/>
    <path d="M 237.306769 67.889419 
L 273.321735 67.889419 
L 273.321735 44.963698 
L 237.306769 44.963698 
L 237.306769 67.889419 
" clip-path="url(#pda4df9793b)" style="fill: #00224e; stroke: #00224e"/>
    <path d="M 21.216976 44.963698 
L 57.231942 44.963698 
L 57.231942 22.037977 
L 21.216976 22.037977 
L 21.216976 44.963698 
" clip-path="url(#pda4df9793b)" style="fill: #fee434; stroke: #fee434"/>
    <path d="M 57.231942 44.963698 
L 93.246907 44.963698 
L 93.246907 22.037977 
L 57.231942 22.037977 
L 57.231942 44.963698 
" clip-path="url(#pda4df9793b)" style="fill: #f9e03a; stroke: #f9e03a"/>
    <path d="M 93.246907 44.963698 
L 129.261873 44.963698 
L 129.261873 22.037977 
L 93.246907 22.037977 
L 93.246907 44.963698 
" clip-path="url(#pda4df9793b)" style="fill: #d1bf61; stroke: #d1bf61"/>
    <path d="M 129.261873 44.963698 
L 165.276838 44.963698 
L 165.276838 22.037977 
L 129.261873 22.037977 
L 129.261873 44.963698 
" clip-path="url(#pda4df9793b)" style="fill: #36466c; stroke: #36466c"/>
    <path d="M 165.276838 44.963698 
L 201.291804 44.963698 
L 201.291804 22.037977 
L 165.276838 22.037977 
L 165.276838 44.963698 
" clip-path="url(#pda4df9793b)" style="fill: #002451; stroke: #002451"/>
    <path d="M 201.291804 44.963698 
L 237.306769 44.963698 
L 237.306769 22.037977 
L 201.291804 22.037977 
L 201.291804 44.963698 
" clip-path="url(#pda4df9793b)" style="fill: #00224e; stroke: #00224e"/>
    <path d="M 237.306769 44.963698 
L 273.321735 44.963698 
L 273.321735 22.037977 
L 237.306769 22.037977 
L 237.306769 44.963698 
" clip-path="url(#pda4df9793b)" style="fill: #00224e; stroke: #00224e"/>
   </g>
   <g id="matplotlib.axis_1">
    <g id="xtick_1">
     <g id="line2d_1">
      <defs>
       <path id="m029f234e59" d="M 0 0 
L 0 3.5 
" style="stroke: #000000; stroke-width: 0.8"/>
      </defs>
      <g>
       <use xlink:href="#m029f234e59" x="39.224459" y="171.055165" style="stroke: #000000; stroke-width: 0.8"/>
      </g>
     </g>
     <g id="text_1">
      <text style="font-size: 7px; font-family: 'Microsoft YaHei'; text-anchor: middle" x="39.224459" y="183.739247" transform="rotate(-0 39.224459 183.739247)">0.2</text>
     </g>
    </g>
    <g id="xtick_2">
     <g id="line2d_2">
      <g>
       <use xlink:href="#m029f234e59" x="78.513512" y="171.055165" style="stroke: #000000; stroke-width: 0.8"/>
      </g>
     </g>
     <g id="text_2">
      <text style="font-size: 7px; font-family: 'Microsoft YaHei'; text-anchor: middle" x="78.513512" y="183.739247" transform="rotate(-0 78.513512 183.739247)">0.3</text>
     </g>
    </g>
    <g id="xtick_3">
     <g id="line2d_3">
      <g>
       <use xlink:href="#m029f234e59" x="117.802565" y="171.055165" style="stroke: #000000; stroke-width: 0.8"/>
      </g>
     </g>
     <g id="text_3">
      <text style="font-size: 7px; font-family: 'Microsoft YaHei'; text-anchor: middle" x="117.802565" y="183.739247" transform="rotate(-0 117.802565 183.739247)">0.4</text>
     </g>
    </g>
    <g id="xtick_4">
     <g id="line2d_4">
      <g>
       <use xlink:href="#m029f234e59" x="157.091619" y="171.055165" style="stroke: #000000; stroke-width: 0.8"/>
      </g>
     </g>
     <g id="text_4">
      <text style="font-size: 7px; font-family: 'Microsoft YaHei'; text-anchor: middle" x="157.091619" y="183.739247" transform="rotate(-0 157.091619 183.739247)">0.5</text>
     </g>
    </g>
    <g id="xtick_5">
     <g id="line2d_5">
      <g>
       <use xlink:href="#m029f234e59" x="196.380672" y="171.055165" style="stroke: #000000; stroke-width: 0.8"/>
      </g>
     </g>
     <g id="text_5">
      <text style="font-size: 7px; font-family: 'Microsoft YaHei'; text-anchor: middle" x="196.380672" y="183.739247" transform="rotate(-0 196.380672 183.739247)">0.6</text>
     </g>
    </g>
    <g id="xtick_6">
     <g id="line2d_6">
      <g>
       <use xlink:href="#m029f234e59" x="235.669726" y="171.055165" style="stroke: #000000; stroke-width: 0.8"/>
      </g>
     </g>
     <g id="text_6">
      <text style="font-size: 7px; font-family: 'Microsoft YaHei'; text-anchor: middle" x="235.669726" y="183.739247" transform="rotate(-0 235.669726 183.739247)">0.7</text>
     </g>
    </g>
    <g id="text_7">
     <text style="font-size: 8px; font-family: 'Microsoft YaHei'; text-anchor: middle" x="147.269355" y="196.204422" transform="rotate(-0 147.269355 196.204422)">给定电位指标 / V</text>
    </g>
   </g>
   <g id="matplotlib.axis_2">
    <g id="ytick_1">
     <g id="line2d_7">
      <defs>
       <path id="m4775277904" d="M 0 0 
L -3.5 0 
" style="stroke: #000000; stroke-width: 0.8"/>
      </defs>
      <g>
       <use xlink:href="#m4775277904" x="39.224459" y="161.229855" style="stroke: #000000; stroke-width: 0.8"/>
      </g>
     </g>
     <g id="text_8">
      <text style="font-size: 7px; font-family: 'Microsoft YaHei'; text-anchor: end" x="32.224459" y="164.071896" transform="rotate(-0 32.224459 164.071896)">200</text>
     </g>
    </g>
    <g id="ytick_2">
     <g id="line2d_8">
      <g>
       <use xlink:href="#m4775277904" x="39.224459" y="141.579237" style="stroke: #000000; stroke-width: 0.8"/>
      </g>
     </g>
     <g id="text_9">
      <text style="font-size: 7px; font-family: 'Microsoft YaHei'; text-anchor: end" x="32.224459" y="144.421278" transform="rotate(-0 32.224459 144.421278)">400</text>
     </g>
    </g>
    <g id="ytick_3">
     <g id="line2d_9">
      <g>
       <use xlink:href="#m4775277904" x="39.224459" y="121.928619" style="stroke: #000000; stroke-width: 0.8"/>
      </g>
     </g>
     <g id="text_10">
      <text style="font-size: 7px; font-family: 'Microsoft YaHei'; text-anchor: end" x="32.224459" y="124.77066" transform="rotate(-0 32.224459 124.77066)">600</text>
     </g>
    </g>
    <g id="ytick_4">
     <g id="line2d_10">
      <g>
       <use xlink:href="#m4775277904" x="39.224459" y="102.278001" style="stroke: #000000; stroke-width: 0.8"/>
      </g>
     </g>
     <g id="text_11">
      <text style="font-size: 7px; font-family: 'Microsoft YaHei'; text-anchor: end" x="32.224459" y="105.120042" transform="rotate(-0 32.224459 105.120042)">800</text>
     </g>
    </g>
    <g id="ytick_5">
     <g id="line2d_11">
      <g>
       <use xlink:href="#m4775277904" x="39.224459" y="82.627383" style="stroke: #000000; stroke-width: 0.8"/>
      </g>
     </g>
     <g id="text_12">
      <text style="font-size: 7px; font-family: 'Microsoft YaHei'; text-anchor: end" x="32.224459" y="85.469424" transform="rotate(-0 32.224459 85.469424)">1000</text>
     </g>
    </g>
    <g id="ytick_6">
     <g id="line2d_12">
      <g>
       <use xlink:href="#m4775277904" x="39.224459" y="62.976764" style="stroke: #000000; stroke-width: 0.8"/>
      </g>
     </g>
     <g id="text_13">
      <text style="font-size: 7px; font-family: 'Microsoft YaHei'; text-anchor: end" x="32.224459" y="65.818805" transform="rotate(-0 32.224459 65.818805)">1200</text>
     </g>
    </g>
    <g id="ytick_7">
     <g id="line2d_13">
      <g>
       <use xlink:href="#m4775277904" x="39.224459" y="43.326146" style="stroke: #000000; stroke-width: 0.8"/>
      </g>
     </g>
     <g id="text_14">
      <text style="font-size: 7px; font-family: 'Microsoft YaHei'; text-anchor: end" x="32.224459" y="46.168187" transform="rotate(-0 32.224459 46.168187)">1400</text>
     </g>
    </g>
    <g id="text_15">
     <text style="font-size: 8px; font-family: 'Microsoft YaHei'; text-anchor: middle" x="9.77774" y="102.278001" transform="rotate(-90 9.77774 102.278001)">流量 / 微升每分</text>
    </g>
   </g>
   <g id="patch_3">
    <path d="M 39.224459 171.055165 
L 39.224459 33.500837 
" style="fill: none; stroke: #000000; stroke-width: 0.7; stroke-linejoin: miter; stroke-linecap: square"/>
   </g>
   <g id="patch_4">
    <path d="M 39.224459 171.055165 
L 255.314252 171.055165 
" style="fill: none; stroke: #000000; stroke-width: 0.7; stroke-linejoin: miter; stroke-linecap: square"/>
   </g>
   <g id="text_16">
    <text style="font-size: 9px; font-family: 'Microsoft YaHei'; text-anchor: middle" x="147.269355" y="27.500837" transform="rotate(-0 147.269355 27.500837)">a  49 点反应网络池</text>
   </g>
  </g>
  <g id="axes_2">
   <g id="patch_5">
    <path d="M 299.309967 171.055165 
L 515.39976 171.055165 
L 515.39976 33.500837 
L 299.309967 33.500837 
z
" style="fill: #ffffff"/>
   </g>
   <g id="matplotlib.axis_3">
    <g id="xtick_7">
     <g id="line2d_14">
      <g>
       <use xlink:href="#m029f234e59" x="309.13223" y="171.055165" style="stroke: #000000; stroke-width: 0.8"/>
      </g>
     </g>
     <g id="text_17">
      <text style="font-size: 7px; font-family: 'Microsoft YaHei'; text-anchor: middle" x="309.13223" y="183.739247" transform="rotate(-0 309.13223 183.739247)">0.2</text>
     </g>
    </g>
    <g id="xtick_8">
     <g id="line2d_15">
      <g>
       <use xlink:href="#m029f234e59" x="344.849551" y="171.055165" style="stroke: #000000; stroke-width: 0.8"/>
      </g>
     </g>
     <g id="text_18">
      <text style="font-size: 7px; font-family: 'Microsoft YaHei'; text-anchor: middle" x="344.849551" y="183.739247" transform="rotate(-0 344.849551 183.739247)">0.3</text>
     </g>
    </g>
    <g id="xtick_9">
     <g id="line2d_16">
      <g>
       <use xlink:href="#m029f234e59" x="380.566872" y="171.055165" style="stroke: #000000; stroke-width: 0.8"/>
      </g>
     </g>
     <g id="text_19">
      <text style="font-size: 7px; font-family: 'Microsoft YaHei'; text-anchor: middle" x="380.566872" y="183.739247" transform="rotate(-0 380.566872 183.739247)">0.4</text>
     </g>
    </g>
    <g id="xtick_10">
     <g id="line2d_17">
      <g>
       <use xlink:href="#m029f234e59" x="416.284194" y="171.055165" style="stroke: #000000; stroke-width: 0.8"/>
      </g>
     </g>
     <g id="text_20">
      <text style="font-size: 7px; font-family: 'Microsoft YaHei'; text-anchor: middle" x="416.284194" y="183.739247" transform="rotate(-0 416.284194 183.739247)">0.5</text>
     </g>
    </g>
    <g id="xtick_11">
     <g id="line2d_18">
      <g>
       <use xlink:href="#m029f234e59" x="452.001515" y="171.055165" style="stroke: #000000; stroke-width: 0.8"/>
      </g>
     </g>
     <g id="text_21">
      <text style="font-size: 7px; font-family: 'Microsoft YaHei'; text-anchor: middle" x="452.001515" y="183.739247" transform="rotate(-0 452.001515 183.739247)">0.6</text>
     </g>
    </g>
    <g id="xtick_12">
     <g id="line2d_19">
      <g>
       <use xlink:href="#m029f234e59" x="487.718836" y="171.055165" style="stroke: #000000; stroke-width: 0.8"/>
      </g>
     </g>
     <g id="text_22">
      <text style="font-size: 7px; font-family: 'Microsoft YaHei'; text-anchor: middle" x="487.718836" y="183.739247" transform="rotate(-0 487.718836 183.739247)">0.7</text>
     </g>
    </g>
    <g id="text_23">
     <text style="font-size: 8px; font-family: 'Microsoft YaHei'; text-anchor: middle" x="407.354863" y="196.204422" transform="rotate(-0 407.354863 196.204422)">给定电位指标 / V</text>
    </g>
   </g>
   <g id="matplotlib.axis_4">
    <g id="ytick_8">
     <g id="line2d_20">
      <g>
       <use xlink:href="#m4775277904" x="299.309967" y="171.055165" style="stroke: #000000; stroke-width: 0.8"/>
      </g>
     </g>
     <g id="text_24">
      <text style="font-size: 7px; font-family: 'Microsoft YaHei'; text-anchor: end" x="292.309967" y="173.897206" transform="rotate(-0 292.309967 173.897206)">0</text>
     </g>
    </g>
    <g id="ytick_9">
     <g id="line2d_21">
      <g>
       <use xlink:href="#m4775277904" x="299.309967" y="144.85434" style="stroke: #000000; stroke-width: 0.8"/>
      </g>
     </g>
     <g id="text_25">
      <text style="font-size: 7px; font-family: 'Microsoft YaHei'; text-anchor: end" x="292.309967" y="147.696381" transform="rotate(-0 292.309967 147.696381)">20</text>
     </g>
    </g>
    <g id="ytick_10">
     <g id="line2d_22">
      <g>
       <use xlink:href="#m4775277904" x="299.309967" y="118.653516" style="stroke: #000000; stroke-width: 0.8"/>
      </g>
     </g>
     <g id="text_26">
      <text style="font-size: 7px; font-family: 'Microsoft YaHei'; text-anchor: end" x="292.309967" y="121.495557" transform="rotate(-0 292.309967 121.495557)">40</text>
     </g>
    </g>
    <g id="ytick_11">
     <g id="line2d_23">
      <g>
       <use xlink:href="#m4775277904" x="299.309967" y="92.452692" style="stroke: #000000; stroke-width: 0.8"/>
      </g>
     </g>
     <g id="text_27">
      <text style="font-size: 7px; font-family: 'Microsoft YaHei'; text-anchor: end" x="292.309967" y="95.294733" transform="rotate(-0 292.309967 95.294733)">60</text>
     </g>
    </g>
    <g id="ytick_12">
     <g id="line2d_24">
      <g>
       <use xlink:href="#m4775277904" x="299.309967" y="66.251868" style="stroke: #000000; stroke-width: 0.8"/>
      </g>
     </g>
     <g id="text_28">
      <text style="font-size: 7px; font-family: 'Microsoft YaHei'; text-anchor: end" x="292.309967" y="69.093909" transform="rotate(-0 292.309967 69.093909)">80</text>
     </g>
    </g>
    <g id="ytick_13">
     <g id="line2d_25">
      <g>
       <use xlink:href="#m4775277904" x="299.309967" y="40.051043" style="stroke: #000000; stroke-width: 0.8"/>
      </g>
     </g>
     <g id="text_29">
      <text style="font-size: 7px; font-family: 'Microsoft YaHei'; text-anchor: end" x="292.309967" y="42.893084" transform="rotate(-0 292.309967 42.893084)">100</text>
     </g>
    </g>
    <g id="text_30">
     <text style="font-size: 8px; font-family: 'Microsoft YaHei'; text-anchor: middle" x="273.968092" y="102.278001" transform="rotate(-90 273.968092 102.278001)">%</text>
    </g>
   </g>
   <g id="line2d_26">
    <path d="M 309.13223 168.405093 
L 341.873108 157.908281 
L 374.613985 133.199481 
L 407.354863 117.296908 
L 440.095741 113.515873 
L 472.836619 112.863826 
L 505.577497 112.76009 
" clip-path="url(#pfd3a1c6506)" style="fill: none; stroke: #075985; stroke-width: 1.3; stroke-linecap: square"/>
    <defs>
     <path id="m6602456a25" d="M 0 1.5 
C 0.397805 1.5 0.77937 1.341951 1.06066 1.06066 
C 1.341951 0.77937 1.5 0.397805 1.5 0 
C 1.5 -0.397805 1.341951 -0.77937 1.06066 -1.06066 
C 0.77937 -1.341951 0.397805 -1.5 0 -1.5 
C -0.397805 -1.5 -0.77937 -1.341951 -1.06066 -1.06066 
C -1.341951 -0.77937 -1.5 -0.397805 -1.5 0 
C -1.5 0.397805 -1.341951 0.77937 -1.06066 1.06066 
C -0.77937 1.341951 -0.397805 1.5 0 1.5 
z
" style="stroke: #075985"/>
    </defs>
    <g clip-path="url(#pfd3a1c6506)">
     <use xlink:href="#m6602456a25" x="309.13223" y="168.405093" style="fill: #075985; stroke: #075985"/>
     <use xlink:href="#m6602456a25" x="341.873108" y="157.908281" style="fill: #075985; stroke: #075985"/>
     <use xlink:href="#m6602456a25" x="374.613985" y="133.199481" style="fill: #075985; stroke: #075985"/>
     <use xlink:href="#m6602456a25" x="407.354863" y="117.296908" style="fill: #075985; stroke: #075985"/>
     <use xlink:href="#m6602456a25" x="440.095741" y="113.515873" style="fill: #075985; stroke: #075985"/>
     <use xlink:href="#m6602456a25" x="472.836619" y="112.863826" style="fill: #075985; stroke: #075985"/>
     <use xlink:href="#m6602456a25" x="505.577497" y="112.76009" style="fill: #075985; stroke: #075985"/>
    </g>
   </g>
   <g id="line2d_27">
    <path d="M 309.13223 168.442123 
L 341.873108 158.275069 
L 374.613985 138.09063 
L 407.354863 156.13864 
L 440.095741 170.083168 
L 472.836619 171.01053 
L 505.577497 171.053239 
" clip-path="url(#pfd3a1c6506)" style="fill: none; stroke-dasharray: 4.81,2.08; stroke-dashoffset: 0; stroke: #d97706; stroke-width: 1.3"/>
    <defs>
     <path id="mbf68f2025c" d="M -1.5 1.5 
L 1.5 1.5 
L 1.5 -1.5 
L -1.5 -1.5 
z
" style="stroke: #d97706; stroke-linejoin: miter"/>
    </defs>
    <g clip-path="url(#pfd3a1c6506)">
     <use xlink:href="#mbf68f2025c" x="309.13223" y="168.442123" style="fill: #d97706; stroke: #d97706; stroke-linejoin: miter"/>
     <use xlink:href="#mbf68f2025c" x="341.873108" y="158.275069" style="fill: #d97706; stroke: #d97706; stroke-linejoin: miter"/>
     <use xlink:href="#mbf68f2025c" x="374.613985" y="138.09063" style="fill: #d97706; stroke: #d97706; stroke-linejoin: miter"/>
     <use xlink:href="#mbf68f2025c" x="407.354863" y="156.13864" style="fill: #d97706; stroke: #d97706; stroke-linejoin: miter"/>
     <use xlink:href="#mbf68f2025c" x="440.095741" y="170.083168" style="fill: #d97706; stroke: #d97706; stroke-linejoin: miter"/>
     <use xlink:href="#mbf68f2025c" x="472.836619" y="171.01053" style="fill: #d97706; stroke: #d97706; stroke-linejoin: miter"/>
     <use xlink:href="#mbf68f2025c" x="505.577497" y="171.053239" style="fill: #d97706; stroke: #d97706; stroke-linejoin: miter"/>
    </g>
   </g>
   <g id="line2d_28">
    <path d="M 309.13223 41.910512 
L 341.873108 44.294949 
L 374.613985 66.409978 
L 407.354863 149.125777 
L 440.095741 169.876213 
L 472.836619 171.00028 
L 505.577497 171.052681 
" clip-path="url(#pfd3a1c6506)" style="fill: none; stroke-dasharray: 1.3,2.145; stroke-dashoffset: 0; stroke: #737a46; stroke-width: 1.3"/>
    <defs>
     <path id="ma9ab3803ad" d="M 0 -1.5 
L -1.5 1.5 
L 1.5 1.5 
z
" style="stroke: #737a46; stroke-linejoin: miter"/>
    </defs>
    <g clip-path="url(#pfd3a1c6506)">
     <use xlink:href="#ma9ab3803ad" x="309.13223" y="41.910512" style="fill: #737a46; stroke: #737a46; stroke-linejoin: miter"/>
     <use xlink:href="#ma9ab3803ad" x="341.873108" y="44.294949" style="fill: #737a46; stroke: #737a46; stroke-linejoin: miter"/>
     <use xlink:href="#ma9ab3803ad" x="374.613985" y="66.409978" style="fill: #737a46; stroke: #737a46; stroke-linejoin: miter"/>
     <use xlink:href="#ma9ab3803ad" x="407.354863" y="149.125777" style="fill: #737a46; stroke: #737a46; stroke-linejoin: miter"/>
     <use xlink:href="#ma9ab3803ad" x="440.095741" y="169.876213" style="fill: #737a46; stroke: #737a46; stroke-linejoin: miter"/>
     <use xlink:href="#ma9ab3803ad" x="472.836619" y="171.00028" style="fill: #737a46; stroke: #737a46; stroke-linejoin: miter"/>
     <use xlink:href="#ma9ab3803ad" x="505.577497" y="171.052681" style="fill: #737a46; stroke: #737a46; stroke-linejoin: miter"/>
    </g>
   </g>
   <g id="patch_6">
    <path d="M 299.309967 171.055165 
L 299.309967 33.500837 
" style="fill: none; stroke: #000000; stroke-width: 0.7; stroke-linejoin: miter; stroke-linecap: square"/>
   </g>
   <g id="patch_7">
    <path d="M 299.309967 171.055165 
L 515.39976 171.055165 
" style="fill: none; stroke: #000000; stroke-width: 0.7; stroke-linejoin: miter; stroke-linecap: square"/>
   </g>
   <g id="text_31">
    <text style="font-size: 9px; font-family: 'Microsoft YaHei'; text-anchor: middle" x="407.354863" y="27.500837" transform="rotate(-0 407.354863 27.500837)">b  截面：800 微升每分</text>
   </g>
   <g id="legend_1">
    <g id="patch_8">
     <path d="M 304.209967 120.041936 
L 356.036217 120.041936 
Q 357.436217 120.041936 357.436217 118.641936 
L 357.436217 85.914065 
Q 357.436217 84.514065 356.036217 84.514065 
L 304.209967 84.514065 
Q 302.809967 84.514065 302.809967 85.914065 
L 302.809967 118.641936 
Q 302.809967 120.041936 304.209967 120.041936 
z
" style="fill: #ffffff; opacity: 0.8; stroke: #cccccc; stroke-linejoin: miter"/>
    </g>
    <g id="line2d_29">
     <path d="M 305.609967 90.73969 
L 312.609967 90.73969 
L 319.609967 90.73969 
" style="fill: none; stroke: #075985; stroke-width: 1.3; stroke-linecap: square"/>
     <g>
      <use xlink:href="#m6602456a25" x="312.609967" y="90.73969" style="fill: #075985; stroke: #075985"/>
     </g>
    </g>
    <g id="text_32">
     <text style="font-size: 7px; font-family: 'Microsoft YaHei'; text-anchor: start" x="325.209967" y="93.18969" transform="rotate(-0 325.209967 93.18969)">A 转化率</text>
    </g>
    <g id="line2d_30">
     <path d="M 305.609967 101.889241 
L 312.609967 101.889241 
L 319.609967 101.889241 
" style="fill: none; stroke-dasharray: 4.81,2.08; stroke-dashoffset: 0; stroke: #d97706; stroke-width: 1.3"/>
     <g>
      <use xlink:href="#mbf68f2025c" x="312.609967" y="101.889241" style="fill: #d97706; stroke: #d97706; stroke-linejoin: miter"/>
     </g>
    </g>
    <g id="text_33">
     <text style="font-size: 7px; font-family: 'Microsoft YaHei'; text-anchor: start" x="325.209967" y="104.339241" transform="rotate(-0 325.209967 104.339241)">净 P 收率</text>
    </g>
    <g id="line2d_31">
     <path d="M 305.609967 113.018011 
L 312.609967 113.018011 
L 319.609967 113.018011 
" style="fill: none; stroke-dasharray: 1.3,2.145; stroke-dashoffset: 0; stroke: #737a46; stroke-width: 1.3"/>
     <g>
      <use xlink:href="#ma9ab3803ad" x="312.609967" y="113.018011" style="fill: #737a46; stroke: #737a46; stroke-linejoin: miter"/>
     </g>
    </g>
    <g id="text_34">
     <text style="font-size: 7px; font-family: 'Microsoft YaHei'; text-anchor: start" x="325.209967" y="115.468011" transform="rotate(-0 325.209967 115.468011)">净 P FE</text>
    </g>
   </g>
  </g>
  <g id="axes_3">
   <g id="patch_9">
    <path d="M 39.224459 241.704149 
L 255.314252 241.704149 
L 255.314252 230.899659 
L 39.224459 230.899659 
z
" style="fill: #ffffff"/>
   </g>
   <g id="QuadMesh_2">
    <path d="M 39.224459 241.704149 
L 39.224459 230.899659 
L 40.06856 230.899659 
L 40.06856 241.704149 
L 39.224459 241.704149 
" clip-path="url(#p93852aecf0)" style="fill: #00224e; stroke: #00224e"/>
    <path d="M 40.06856 241.704149 
L 40.06856 230.899659 
L 40.91266 230.899659 
L 40.91266 241.704149 
L 40.06856 241.704149 
" clip-path="url(#p93852aecf0)" style="fill: #00234f; stroke: #00234f"/>
    <path d="M 40.91266 241.704149 
L 40.91266 230.899659 
L 41.756761 230.899659 
L 41.756761 241.704149 
L 40.91266 241.704149 
" clip-path="url(#p93852aecf0)" style="fill: #002451; stroke: #002451"/>
    <path d="M 41.756761 241.704149 
L 41.756761 230.899659 
L 42.600862 230.899659 
L 42.600862 241.704149 
L 41.756761 241.704149 
" clip-path="url(#p93852aecf0)" style="fill: #002553; stroke: #002553"/>
    <path d="M 42.600862 241.704149 
L 42.600862 230.899659 
L 43.444963 230.899659 
L 43.444963 241.704149 
L 42.600862 241.704149 
" clip-path="url(#p93852aecf0)" style="fill: #002554; stroke: #002554"/>
    <path d="M 43.444963 241.704149 
L 43.444963 230.899659 
L 44.289063 230.899659 
L 44.289063 241.704149 
L 43.444963 241.704149 
" clip-path="url(#p93852aecf0)" style="fill: #002656; stroke: #002656"/>
    <path d="M 44.289063 241.704149 
L 44.289063 230.899659 
L 45.133164 230.899659 
L 45.133164 241.704149 
L 44.289063 241.704149 
" clip-path="url(#p93852aecf0)" style="fill: #002758; stroke: #002758"/>
    <path d="M 45.133164 241.704149 
L 45.133164 230.899659 
L 45.977265 230.899659 
L 45.977265 241.704149 
L 45.133164 241.704149 
" clip-path="url(#p93852aecf0)" style="fill: #002859; stroke: #002859"/>
    <path d="M 45.977265 241.704149 
L 45.977265 230.899659 
L 46.821366 230.899659 
L 46.821366 241.704149 
L 45.977265 241.704149 
" clip-path="url(#p93852aecf0)" style="fill: #00285b; stroke: #00285b"/>
    <path d="M 46.821366 241.704149 
L 46.821366 230.899659 
L 47.665466 230.899659 
L 47.665466 241.704149 
L 46.821366 241.704149 
" clip-path="url(#p93852aecf0)" style="fill: #00295d; stroke: #00295d"/>
    <path d="M 47.665466 241.704149 
L 47.665466 230.899659 
L 48.509567 230.899659 
L 48.509567 241.704149 
L 47.665466 241.704149 
" clip-path="url(#p93852aecf0)" style="fill: #002a5f; stroke: #002a5f"/>
    <path d="M 48.509567 241.704149 
L 48.509567 230.899659 
L 49.353668 230.899659 
L 49.353668 241.704149 
L 48.509567 241.704149 
" clip-path="url(#p93852aecf0)" style="fill: #002a61; stroke: #002a61"/>
    <path d="M 49.353668 241.704149 
L 49.353668 230.899659 
L 50.197769 230.899659 
L 50.197769 241.704149 
L 49.353668 241.704149 
" clip-path="url(#p93852aecf0)" style="fill: #002b62; stroke: #002b62"/>
    <path d="M 50.197769 241.704149 
L 50.197769 230.899659 
L 51.041869 230.899659 
L 51.041869 241.704149 
L 50.197769 241.704149 
" clip-path="url(#p93852aecf0)" style="fill: #002c64; stroke: #002c64"/>
    <path d="M 51.041869 241.704149 
L 51.041869 230.899659 
L 51.88597 230.899659 
L 51.88597 241.704149 
L 51.041869 241.704149 
" clip-path="url(#p93852aecf0)" style="fill: #002c66; stroke: #002c66"/>
    <path d="M 51.88597 241.704149 
L 51.88597 230.899659 
L 52.730071 230.899659 
L 52.730071 241.704149 
L 51.88597 241.704149 
" clip-path="url(#p93852aecf0)" style="fill: #002d68; stroke: #002d68"/>
    <path d="M 52.730071 241.704149 
L 52.730071 230.899659 
L 53.574172 230.899659 
L 53.574172 241.704149 
L 52.730071 241.704149 
" clip-path="url(#p93852aecf0)" style="fill: #002e6a; stroke: #002e6a"/>
    <path d="M 53.574172 241.704149 
L 53.574172 230.899659 
L 54.418272 230.899659 
L 54.418272 241.704149 
L 53.574172 241.704149 
" clip-path="url(#p93852aecf0)" style="fill: #002e6c; stroke: #002e6c"/>
    <path d="M 54.418272 241.704149 
L 54.418272 230.899659 
L 55.262373 230.899659 
L 55.262373 241.704149 
L 54.418272 241.704149 
" clip-path="url(#p93852aecf0)" style="fill: #002f6d; stroke: #002f6d"/>
    <path d="M 55.262373 241.704149 
L 55.262373 230.899659 
L 56.106474 230.899659 
L 56.106474 241.704149 
L 55.262373 241.704149 
" clip-path="url(#p93852aecf0)" style="fill: #00306f; stroke: #00306f"/>
    <path d="M 56.106474 241.704149 
L 56.106474 230.899659 
L 56.950575 230.899659 
L 56.950575 241.704149 
L 56.106474 241.704149 
" clip-path="url(#p93852aecf0)" style="fill: #003070; stroke: #003070"/>
    <path d="M 56.950575 241.704149 
L 56.950575 230.899659 
L 57.794675 230.899659 
L 57.794675 241.704149 
L 56.950575 241.704149 
" clip-path="url(#p93852aecf0)" style="fill: #003170; stroke: #003170"/>
    <path d="M 57.794675 241.704149 
L 57.794675 230.899659 
L 58.638776 230.899659 
L 58.638776 241.704149 
L 57.794675 241.704149 
" clip-path="url(#p93852aecf0)" style="fill: #003171; stroke: #003171"/>
    <path d="M 58.638776 241.704149 
L 58.638776 230.899659 
L 59.482877 230.899659 
L 59.482877 241.704149 
L 58.638776 241.704149 
" clip-path="url(#p93852aecf0)" style="fill: #013271; stroke: #013271"/>
    <path d="M 59.482877 241.704149 
L 59.482877 230.899659 
L 60.326978 230.899659 
L 60.326978 241.704149 
L 59.482877 241.704149 
" clip-path="url(#p93852aecf0)" style="fill: #053371; stroke: #053371"/>
    <path d="M 60.326978 241.704149 
L 60.326978 230.899659 
L 61.171078 230.899659 
L 61.171078 241.704149 
L 60.326978 241.704149 
" clip-path="url(#p93852aecf0)" style="fill: #083370; stroke: #083370"/>
    <path d="M 61.171078 241.704149 
L 61.171078 230.899659 
L 62.015179 230.899659 
L 62.015179 241.704149 
L 61.171078 241.704149 
" clip-path="url(#p93852aecf0)" style="fill: #0c3470; stroke: #0c3470"/>
    <path d="M 62.015179 241.704149 
L 62.015179 230.899659 
L 62.85928 230.899659 
L 62.85928 241.704149 
L 62.015179 241.704149 
" clip-path="url(#p93852aecf0)" style="fill: #0f3570; stroke: #0f3570"/>
    <path d="M 62.85928 241.704149 
L 62.85928 230.899659 
L 63.703381 230.899659 
L 63.703381 241.704149 
L 62.85928 241.704149 
" clip-path="url(#p93852aecf0)" style="fill: #123570; stroke: #123570"/>
    <path d="M 63.703381 241.704149 
L 63.703381 230.899659 
L 64.547481 230.899659 
L 64.547481 241.704149 
L 63.703381 241.704149 
" clip-path="url(#p93852aecf0)" style="fill: #143670; stroke: #143670"/>
    <path d="M 64.547481 241.704149 
L 64.547481 230.899659 
L 65.391582 230.899659 
L 65.391582 241.704149 
L 64.547481 241.704149 
" clip-path="url(#p93852aecf0)" style="fill: #163770; stroke: #163770"/>
    <path d="M 65.391582 241.704149 
L 65.391582 230.899659 
L 66.235683 230.899659 
L 66.235683 241.704149 
L 65.391582 241.704149 
" clip-path="url(#p93852aecf0)" style="fill: #18376f; stroke: #18376f"/>
    <path d="M 66.235683 241.704149 
L 66.235683 230.899659 
L 67.079784 230.899659 
L 67.079784 241.704149 
L 66.235683 241.704149 
" clip-path="url(#p93852aecf0)" style="fill: #1a386f; stroke: #1a386f"/>
    <path d="M 67.079784 241.704149 
L 67.079784 230.899659 
L 67.923884 230.899659 
L 67.923884 241.704149 
L 67.079784 241.704149 
" clip-path="url(#p93852aecf0)" style="fill: #1c396f; stroke: #1c396f"/>
    <path d="M 67.923884 241.704149 
L 67.923884 230.899659 
L 68.767985 230.899659 
L 68.767985 241.704149 
L 67.923884 241.704149 
" clip-path="url(#p93852aecf0)" style="fill: #1e3a6f; stroke: #1e3a6f"/>
    <path d="M 68.767985 241.704149 
L 68.767985 230.899659 
L 69.612086 230.899659 
L 69.612086 241.704149 
L 68.767985 241.704149 
" clip-path="url(#p93852aecf0)" style="fill: #203a6f; stroke: #203a6f"/>
    <path d="M 69.612086 241.704149 
L 69.612086 230.899659 
L 70.456187 230.899659 
L 70.456187 241.704149 
L 69.612086 241.704149 
" clip-path="url(#p93852aecf0)" style="fill: #213b6e; stroke: #213b6e"/>
    <path d="M 70.456187 241.704149 
L 70.456187 230.899659 
L 71.300287 230.899659 
L 71.300287 241.704149 
L 70.456187 241.704149 
" clip-path="url(#p93852aecf0)" style="fill: #233c6e; stroke: #233c6e"/>
    <path d="M 71.300287 241.704149 
L 71.300287 230.899659 
L 72.144388 230.899659 
L 72.144388 241.704149 
L 71.300287 241.704149 
" clip-path="url(#p93852aecf0)" style="fill: #243c6e; stroke: #243c6e"/>
    <path d="M 72.144388 241.704149 
L 72.144388 230.899659 
L 72.988489 230.899659 
L 72.988489 241.704149 
L 72.144388 241.704149 
" clip-path="url(#p93852aecf0)" style="fill: #263d6e; stroke: #263d6e"/>
    <path d="M 72.988489 241.704149 
L 72.988489 230.899659 
L 73.83259 230.899659 
L 73.83259 241.704149 
L 72.988489 241.704149 
" clip-path="url(#p93852aecf0)" style="fill: #273e6e; stroke: #273e6e"/>
    <path d="M 73.83259 241.704149 
L 73.83259 230.899659 
L 74.67669 230.899659 
L 74.67669 241.704149 
L 73.83259 241.704149 
" clip-path="url(#p93852aecf0)" style="fill: #293f6e; stroke: #293f6e"/>
    <path d="M 74.67669 241.704149 
L 74.67669 230.899659 
L 75.520791 230.899659 
L 75.520791 241.704149 
L 74.67669 241.704149 
" clip-path="url(#p93852aecf0)" style="fill: #2a3f6d; stroke: #2a3f6d"/>
    <path d="M 75.520791 241.704149 
L 75.520791 230.899659 
L 76.364892 230.899659 
L 76.364892 241.704149 
L 75.520791 241.704149 
" clip-path="url(#p93852aecf0)" style="fill: #2b406d; stroke: #2b406d"/>
    <path d="M 76.364892 241.704149 
L 76.364892 230.899659 
L 77.208993 230.899659 
L 77.208993 241.704149 
L 76.364892 241.704149 
" clip-path="url(#p93852aecf0)" style="fill: #2d416d; stroke: #2d416d"/>
    <path d="M 77.208993 241.704149 
L 77.208993 230.899659 
L 78.053094 230.899659 
L 78.053094 241.704149 
L 77.208993 241.704149 
" clip-path="url(#p93852aecf0)" style="fill: #2e416d; stroke: #2e416d"/>
    <path d="M 78.053094 241.704149 
L 78.053094 230.899659 
L 78.897194 230.899659 
L 78.897194 241.704149 
L 78.053094 241.704149 
" clip-path="url(#p93852aecf0)" style="fill: #2f426d; stroke: #2f426d"/>
    <path d="M 78.897194 241.704149 
L 78.897194 230.899659 
L 79.741295 230.899659 
L 79.741295 241.704149 
L 78.897194 241.704149 
" clip-path="url(#p93852aecf0)" style="fill: #31436d; stroke: #31436d"/>
    <path d="M 79.741295 241.704149 
L 79.741295 230.899659 
L 80.585396 230.899659 
L 80.585396 241.704149 
L 79.741295 241.704149 
" clip-path="url(#p93852aecf0)" style="fill: #32436d; stroke: #32436d"/>
    <path d="M 80.585396 241.704149 
L 80.585396 230.899659 
L 81.429497 230.899659 
L 81.429497 241.704149 
L 80.585396 241.704149 
" clip-path="url(#p93852aecf0)" style="fill: #33446d; stroke: #33446d"/>
    <path d="M 81.429497 241.704149 
L 81.429497 230.899659 
L 82.273597 230.899659 
L 82.273597 241.704149 
L 81.429497 241.704149 
" clip-path="url(#p93852aecf0)" style="fill: #34456c; stroke: #34456c"/>
    <path d="M 82.273597 241.704149 
L 82.273597 230.899659 
L 83.117698 230.899659 
L 83.117698 241.704149 
L 82.273597 241.704149 
" clip-path="url(#p93852aecf0)" style="fill: #35456c; stroke: #35456c"/>
    <path d="M 83.117698 241.704149 
L 83.117698 230.899659 
L 83.961799 230.899659 
L 83.961799 241.704149 
L 83.117698 241.704149 
" clip-path="url(#p93852aecf0)" style="fill: #36466c; stroke: #36466c"/>
    <path d="M 83.961799 241.704149 
L 83.961799 230.899659 
L 84.8059 230.899659 
L 84.8059 241.704149 
L 83.961799 241.704149 
" clip-path="url(#p93852aecf0)" style="fill: #38476c; stroke: #38476c"/>
    <path d="M 84.8059 241.704149 
L 84.8059 230.899659 
L 85.65 230.899659 
L 85.65 241.704149 
L 84.8059 241.704149 
" clip-path="url(#p93852aecf0)" style="fill: #39486c; stroke: #39486c"/>
    <path d="M 85.65 241.704149 
L 85.65 230.899659 
L 86.494101 230.899659 
L 86.494101 241.704149 
L 85.65 241.704149 
" clip-path="url(#p93852aecf0)" style="fill: #3a486c; stroke: #3a486c"/>
    <path d="M 86.494101 241.704149 
L 86.494101 230.899659 
L 87.338202 230.899659 
L 87.338202 241.704149 
L 86.494101 241.704149 
" clip-path="url(#p93852aecf0)" style="fill: #3b496c; stroke: #3b496c"/>
    <path d="M 87.338202 241.704149 
L 87.338202 230.899659 
L 88.182303 230.899659 
L 88.182303 241.704149 
L 87.338202 241.704149 
" clip-path="url(#p93852aecf0)" style="fill: #3c4a6c; stroke: #3c4a6c"/>
    <path d="M 88.182303 241.704149 
L 88.182303 230.899659 
L 89.026403 230.899659 
L 89.026403 241.704149 
L 88.182303 241.704149 
" clip-path="url(#p93852aecf0)" style="fill: #3d4a6c; stroke: #3d4a6c"/>
    <path d="M 89.026403 241.704149 
L 89.026403 230.899659 
L 89.870504 230.899659 
L 89.870504 241.704149 
L 89.026403 241.704149 
" clip-path="url(#p93852aecf0)" style="fill: #3e4b6c; stroke: #3e4b6c"/>
    <path d="M 89.870504 241.704149 
L 89.870504 230.899659 
L 90.714605 230.899659 
L 90.714605 241.704149 
L 89.870504 241.704149 
" clip-path="url(#p93852aecf0)" style="fill: #3f4c6c; stroke: #3f4c6c"/>
    <path d="M 90.714605 241.704149 
L 90.714605 230.899659 
L 91.558706 230.899659 
L 91.558706 241.704149 
L 90.714605 241.704149 
" clip-path="url(#p93852aecf0)" style="fill: #404c6c; stroke: #404c6c"/>
    <path d="M 91.558706 241.704149 
L 91.558706 230.899659 
L 92.402806 230.899659 
L 92.402806 241.704149 
L 91.558706 241.704149 
" clip-path="url(#p93852aecf0)" style="fill: #414d6c; stroke: #414d6c"/>
    <path d="M 92.402806 241.704149 
L 92.402806 230.899659 
L 93.246907 230.899659 
L 93.246907 241.704149 
L 92.402806 241.704149 
" clip-path="url(#p93852aecf0)" style="fill: #424e6c; stroke: #424e6c"/>
    <path d="M 93.246907 241.704149 
L 93.246907 230.899659 
L 94.091008 230.899659 
L 94.091008 241.704149 
L 93.246907 241.704149 
" clip-path="url(#p93852aecf0)" style="fill: #434e6c; stroke: #434e6c"/>
    <path d="M 94.091008 241.704149 
L 94.091008 230.899659 
L 94.935109 230.899659 
L 94.935109 241.704149 
L 94.091008 241.704149 
" clip-path="url(#p93852aecf0)" style="fill: #444f6c; stroke: #444f6c"/>
    <path d="M 94.935109 241.704149 
L 94.935109 230.899659 
L 95.779209 230.899659 
L 95.779209 241.704149 
L 94.935109 241.704149 
" clip-path="url(#p93852aecf0)" style="fill: #45506c; stroke: #45506c"/>
    <path d="M 95.779209 241.704149 
L 95.779209 230.899659 
L 96.62331 230.899659 
L 96.62331 241.704149 
L 95.779209 241.704149 
" clip-path="url(#p93852aecf0)" style="fill: #46516c; stroke: #46516c"/>
    <path d="M 96.62331 241.704149 
L 96.62331 230.899659 
L 97.467411 230.899659 
L 97.467411 241.704149 
L 96.62331 241.704149 
" clip-path="url(#p93852aecf0)" style="fill: #47516c; stroke: #47516c"/>
    <path d="M 97.467411 241.704149 
L 97.467411 230.899659 
L 98.311512 230.899659 
L 98.311512 241.704149 
L 97.467411 241.704149 
" clip-path="url(#p93852aecf0)" style="fill: #48526c; stroke: #48526c"/>
    <path d="M 98.311512 241.704149 
L 98.311512 230.899659 
L 99.155612 230.899659 
L 99.155612 241.704149 
L 98.311512 241.704149 
" clip-path="url(#p93852aecf0)" style="fill: #49536c; stroke: #49536c"/>
    <path d="M 99.155612 241.704149 
L 99.155612 230.899659 
L 99.999713 230.899659 
L 99.999713 241.704149 
L 99.155612 241.704149 
" clip-path="url(#p93852aecf0)" style="fill: #4a536c; stroke: #4a536c"/>
    <path d="M 99.999713 241.704149 
L 99.999713 230.899659 
L 100.843814 230.899659 
L 100.843814 241.704149 
L 99.999713 241.704149 
" clip-path="url(#p93852aecf0)" style="fill: #4b546c; stroke: #4b546c"/>
    <path d="M 100.843814 241.704149 
L 100.843814 230.899659 
L 101.687915 230.899659 
L 101.687915 241.704149 
L 100.843814 241.704149 
" clip-path="url(#p93852aecf0)" style="fill: #4c556c; stroke: #4c556c"/>
    <path d="M 101.687915 241.704149 
L 101.687915 230.899659 
L 102.532015 230.899659 
L 102.532015 241.704149 
L 101.687915 241.704149 
" clip-path="url(#p93852aecf0)" style="fill: #4d556c; stroke: #4d556c"/>
    <path d="M 102.532015 241.704149 
L 102.532015 230.899659 
L 103.376116 230.899659 
L 103.376116 241.704149 
L 102.532015 241.704149 
" clip-path="url(#p93852aecf0)" style="fill: #4e566c; stroke: #4e566c"/>
    <path d="M 103.376116 241.704149 
L 103.376116 230.899659 
L 104.220217 230.899659 
L 104.220217 241.704149 
L 103.376116 241.704149 
" clip-path="url(#p93852aecf0)" style="fill: #4f576c; stroke: #4f576c"/>
    <path d="M 104.220217 241.704149 
L 104.220217 230.899659 
L 105.064318 230.899659 
L 105.064318 241.704149 
L 104.220217 241.704149 
" clip-path="url(#p93852aecf0)" style="fill: #50576c; stroke: #50576c"/>
    <path d="M 105.064318 241.704149 
L 105.064318 230.899659 
L 105.908418 230.899659 
L 105.908418 241.704149 
L 105.064318 241.704149 
" clip-path="url(#p93852aecf0)" style="fill: #51586d; stroke: #51586d"/>
    <path d="M 105.908418 241.704149 
L 105.908418 230.899659 
L 106.752519 230.899659 
L 106.752519 241.704149 
L 105.908418 241.704149 
" clip-path="url(#p93852aecf0)" style="fill: #52596d; stroke: #52596d"/>
    <path d="M 106.752519 241.704149 
L 106.752519 230.899659 
L 107.59662 230.899659 
L 107.59662 241.704149 
L 106.752519 241.704149 
" clip-path="url(#p93852aecf0)" style="fill: #535a6d; stroke: #535a6d"/>
    <path d="M 107.59662 241.704149 
L 107.59662 230.899659 
L 108.440721 230.899659 
L 108.440721 241.704149 
L 107.59662 241.704149 
" clip-path="url(#p93852aecf0)" style="fill: #545a6d; stroke: #545a6d"/>
    <path d="M 108.440721 241.704149 
L 108.440721 230.899659 
L 109.284821 230.899659 
L 109.284821 241.704149 
L 108.440721 241.704149 
" clip-path="url(#p93852aecf0)" style="fill: #555b6d; stroke: #555b6d"/>
    <path d="M 109.284821 241.704149 
L 109.284821 230.899659 
L 110.128922 230.899659 
L 110.128922 241.704149 
L 109.284821 241.704149 
" clip-path="url(#p93852aecf0)" style="fill: #555c6d; stroke: #555c6d"/>
    <path d="M 110.128922 241.704149 
L 110.128922 230.899659 
L 110.973023 230.899659 
L 110.973023 241.704149 
L 110.128922 241.704149 
" clip-path="url(#p93852aecf0)" style="fill: #565c6d; stroke: #565c6d"/>
    <path d="M 110.973023 241.704149 
L 110.973023 230.899659 
L 111.817124 230.899659 
L 111.817124 241.704149 
L 110.973023 241.704149 
" clip-path="url(#p93852aecf0)" style="fill: #575d6d; stroke: #575d6d"/>
    <path d="M 111.817124 241.704149 
L 111.817124 230.899659 
L 112.661224 230.899659 
L 112.661224 241.704149 
L 111.817124 241.704149 
" clip-path="url(#p93852aecf0)" style="fill: #585e6d; stroke: #585e6d"/>
    <path d="M 112.661224 241.704149 
L 112.661224 230.899659 
L 113.505325 230.899659 
L 113.505325 241.704149 
L 112.661224 241.704149 
" clip-path="url(#p93852aecf0)" style="fill: #595e6e; stroke: #595e6e"/>
    <path d="M 113.505325 241.704149 
L 113.505325 230.899659 
L 114.349426 230.899659 
L 114.349426 241.704149 
L 113.505325 241.704149 
" clip-path="url(#p93852aecf0)" style="fill: #5a5f6e; stroke: #5a5f6e"/>
    <path d="M 114.349426 241.704149 
L 114.349426 230.899659 
L 115.193527 230.899659 
L 115.193527 241.704149 
L 114.349426 241.704149 
" clip-path="url(#p93852aecf0)" style="fill: #5b606e; stroke: #5b606e"/>
    <path d="M 115.193527 241.704149 
L 115.193527 230.899659 
L 116.037628 230.899659 
L 116.037628 241.704149 
L 115.193527 241.704149 
" clip-path="url(#p93852aecf0)" style="fill: #5c616e; stroke: #5c616e"/>
    <path d="M 116.037628 241.704149 
L 116.037628 230.899659 
L 116.881728 230.899659 
L 116.881728 241.704149 
L 116.037628 241.704149 
" clip-path="url(#p93852aecf0)" style="fill: #5d616e; stroke: #5d616e"/>
    <path d="M 116.881728 241.704149 
L 116.881728 230.899659 
L 117.725829 230.899659 
L 117.725829 241.704149 
L 116.881728 241.704149 
" clip-path="url(#p93852aecf0)" style="fill: #5e626e; stroke: #5e626e"/>
    <path d="M 117.725829 241.704149 
L 117.725829 230.899659 
L 118.56993 230.899659 
L 118.56993 241.704149 
L 117.725829 241.704149 
" clip-path="url(#p93852aecf0)" style="fill: #5e636f; stroke: #5e636f"/>
    <path d="M 118.56993 241.704149 
L 118.56993 230.899659 
L 119.414031 230.899659 
L 119.414031 241.704149 
L 118.56993 241.704149 
" clip-path="url(#p93852aecf0)" style="fill: #5f636f; stroke: #5f636f"/>
    <path d="M 119.414031 241.704149 
L 119.414031 230.899659 
L 120.258131 230.899659 
L 120.258131 241.704149 
L 119.414031 241.704149 
" clip-path="url(#p93852aecf0)" style="fill: #60646f; stroke: #60646f"/>
    <path d="M 120.258131 241.704149 
L 120.258131 230.899659 
L 121.102232 230.899659 
L 121.102232 241.704149 
L 120.258131 241.704149 
" clip-path="url(#p93852aecf0)" style="fill: #61656f; stroke: #61656f"/>
    <path d="M 121.102232 241.704149 
L 121.102232 230.899659 
L 121.946333 230.899659 
L 121.946333 241.704149 
L 121.102232 241.704149 
" clip-path="url(#p93852aecf0)" style="fill: #62656f; stroke: #62656f"/>
    <path d="M 121.946333 241.704149 
L 121.946333 230.899659 
L 122.790434 230.899659 
L 122.790434 241.704149 
L 121.946333 241.704149 
" clip-path="url(#p93852aecf0)" style="fill: #636670; stroke: #636670"/>
    <path d="M 122.790434 241.704149 
L 122.790434 230.899659 
L 123.634534 230.899659 
L 123.634534 241.704149 
L 122.790434 241.704149 
" clip-path="url(#p93852aecf0)" style="fill: #646770; stroke: #646770"/>
    <path d="M 123.634534 241.704149 
L 123.634534 230.899659 
L 124.478635 230.899659 
L 124.478635 241.704149 
L 123.634534 241.704149 
" clip-path="url(#p93852aecf0)" style="fill: #656870; stroke: #656870"/>
    <path d="M 124.478635 241.704149 
L 124.478635 230.899659 
L 125.322736 230.899659 
L 125.322736 241.704149 
L 124.478635 241.704149 
" clip-path="url(#p93852aecf0)" style="fill: #656870; stroke: #656870"/>
    <path d="M 125.322736 241.704149 
L 125.322736 230.899659 
L 126.166837 230.899659 
L 126.166837 241.704149 
L 125.322736 241.704149 
" clip-path="url(#p93852aecf0)" style="fill: #666970; stroke: #666970"/>
    <path d="M 126.166837 241.704149 
L 126.166837 230.899659 
L 127.010937 230.899659 
L 127.010937 241.704149 
L 126.166837 241.704149 
" clip-path="url(#p93852aecf0)" style="fill: #676a71; stroke: #676a71"/>
    <path d="M 127.010937 241.704149 
L 127.010937 230.899659 
L 127.855038 230.899659 
L 127.855038 241.704149 
L 127.010937 241.704149 
" clip-path="url(#p93852aecf0)" style="fill: #686a71; stroke: #686a71"/>
    <path d="M 127.855038 241.704149 
L 127.855038 230.899659 
L 128.699139 230.899659 
L 128.699139 241.704149 
L 127.855038 241.704149 
" clip-path="url(#p93852aecf0)" style="fill: #696b71; stroke: #696b71"/>
    <path d="M 128.699139 241.704149 
L 128.699139 230.899659 
L 129.54324 230.899659 
L 129.54324 241.704149 
L 128.699139 241.704149 
" clip-path="url(#p93852aecf0)" style="fill: #6a6c71; stroke: #6a6c71"/>
    <path d="M 129.54324 241.704149 
L 129.54324 230.899659 
L 130.38734 230.899659 
L 130.38734 241.704149 
L 129.54324 241.704149 
" clip-path="url(#p93852aecf0)" style="fill: #6b6d72; stroke: #6b6d72"/>
    <path d="M 130.38734 241.704149 
L 130.38734 230.899659 
L 131.231441 230.899659 
L 131.231441 241.704149 
L 130.38734 241.704149 
" clip-path="url(#p93852aecf0)" style="fill: #6c6d72; stroke: #6c6d72"/>
    <path d="M 131.231441 241.704149 
L 131.231441 230.899659 
L 132.075542 230.899659 
L 132.075542 241.704149 
L 131.231441 241.704149 
" clip-path="url(#p93852aecf0)" style="fill: #6c6e72; stroke: #6c6e72"/>
    <path d="M 132.075542 241.704149 
L 132.075542 230.899659 
L 132.919643 230.899659 
L 132.919643 241.704149 
L 132.075542 241.704149 
" clip-path="url(#p93852aecf0)" style="fill: #6d6f72; stroke: #6d6f72"/>
    <path d="M 132.919643 241.704149 
L 132.919643 230.899659 
L 133.763743 230.899659 
L 133.763743 241.704149 
L 132.919643 241.704149 
" clip-path="url(#p93852aecf0)" style="fill: #6e6f73; stroke: #6e6f73"/>
    <path d="M 133.763743 241.704149 
L 133.763743 230.899659 
L 134.607844 230.899659 
L 134.607844 241.704149 
L 133.763743 241.704149 
" clip-path="url(#p93852aecf0)" style="fill: #6f7073; stroke: #6f7073"/>
    <path d="M 134.607844 241.704149 
L 134.607844 230.899659 
L 135.451945 230.899659 
L 135.451945 241.704149 
L 134.607844 241.704149 
" clip-path="url(#p93852aecf0)" style="fill: #707173; stroke: #707173"/>
    <path d="M 135.451945 241.704149 
L 135.451945 230.899659 
L 136.296046 230.899659 
L 136.296046 241.704149 
L 135.451945 241.704149 
" clip-path="url(#p93852aecf0)" style="fill: #717274; stroke: #717274"/>
    <path d="M 136.296046 241.704149 
L 136.296046 230.899659 
L 137.140146 230.899659 
L 137.140146 241.704149 
L 136.296046 241.704149 
" clip-path="url(#p93852aecf0)" style="fill: #727274; stroke: #727274"/>
    <path d="M 137.140146 241.704149 
L 137.140146 230.899659 
L 137.984247 230.899659 
L 137.984247 241.704149 
L 137.140146 241.704149 
" clip-path="url(#p93852aecf0)" style="fill: #727374; stroke: #727374"/>
    <path d="M 137.984247 241.704149 
L 137.984247 230.899659 
L 138.828348 230.899659 
L 138.828348 241.704149 
L 137.984247 241.704149 
" clip-path="url(#p93852aecf0)" style="fill: #737475; stroke: #737475"/>
    <path d="M 138.828348 241.704149 
L 138.828348 230.899659 
L 139.672449 230.899659 
L 139.672449 241.704149 
L 138.828348 241.704149 
" clip-path="url(#p93852aecf0)" style="fill: #747475; stroke: #747475"/>
    <path d="M 139.672449 241.704149 
L 139.672449 230.899659 
L 140.516549 230.899659 
L 140.516549 241.704149 
L 139.672449 241.704149 
" clip-path="url(#p93852aecf0)" style="fill: #757575; stroke: #757575"/>
    <path d="M 140.516549 241.704149 
L 140.516549 230.899659 
L 141.36065 230.899659 
L 141.36065 241.704149 
L 140.516549 241.704149 
" clip-path="url(#p93852aecf0)" style="fill: #767676; stroke: #767676"/>
    <path d="M 141.36065 241.704149 
L 141.36065 230.899659 
L 142.204751 230.899659 
L 142.204751 241.704149 
L 141.36065 241.704149 
" clip-path="url(#p93852aecf0)" style="fill: #777776; stroke: #777776"/>
    <path d="M 142.204751 241.704149 
L 142.204751 230.899659 
L 143.048852 230.899659 
L 143.048852 241.704149 
L 142.204751 241.704149 
" clip-path="url(#p93852aecf0)" style="fill: #777777; stroke: #777777"/>
    <path d="M 143.048852 241.704149 
L 143.048852 230.899659 
L 143.892952 230.899659 
L 143.892952 241.704149 
L 143.048852 241.704149 
" clip-path="url(#p93852aecf0)" style="fill: #787877; stroke: #787877"/>
    <path d="M 143.892952 241.704149 
L 143.892952 230.899659 
L 144.737053 230.899659 
L 144.737053 241.704149 
L 143.892952 241.704149 
" clip-path="url(#p93852aecf0)" style="fill: #797977; stroke: #797977"/>
    <path d="M 144.737053 241.704149 
L 144.737053 230.899659 
L 145.581154 230.899659 
L 145.581154 241.704149 
L 144.737053 241.704149 
" clip-path="url(#p93852aecf0)" style="fill: #7a7a78; stroke: #7a7a78"/>
    <path d="M 145.581154 241.704149 
L 145.581154 230.899659 
L 146.425255 230.899659 
L 146.425255 241.704149 
L 145.581154 241.704149 
" clip-path="url(#p93852aecf0)" style="fill: #7b7a78; stroke: #7b7a78"/>
    <path d="M 146.425255 241.704149 
L 146.425255 230.899659 
L 147.269355 230.899659 
L 147.269355 241.704149 
L 146.425255 241.704149 
" clip-path="url(#p93852aecf0)" style="fill: #7c7b78; stroke: #7c7b78"/>
    <path d="M 147.269355 241.704149 
L 147.269355 230.899659 
L 148.113456 230.899659 
L 148.113456 241.704149 
L 147.269355 241.704149 
" clip-path="url(#p93852aecf0)" style="fill: #7d7c78; stroke: #7d7c78"/>
    <path d="M 148.113456 241.704149 
L 148.113456 230.899659 
L 148.957557 230.899659 
L 148.957557 241.704149 
L 148.113456 241.704149 
" clip-path="url(#p93852aecf0)" style="fill: #7e7c78; stroke: #7e7c78"/>
    <path d="M 148.957557 241.704149 
L 148.957557 230.899659 
L 149.801658 230.899659 
L 149.801658 241.704149 
L 148.957557 241.704149 
" clip-path="url(#p93852aecf0)" style="fill: #7e7d78; stroke: #7e7d78"/>
    <path d="M 149.801658 241.704149 
L 149.801658 230.899659 
L 150.645758 230.899659 
L 150.645758 241.704149 
L 149.801658 241.704149 
" clip-path="url(#p93852aecf0)" style="fill: #7f7e78; stroke: #7f7e78"/>
    <path d="M 150.645758 241.704149 
L 150.645758 230.899659 
L 151.489859 230.899659 
L 151.489859 241.704149 
L 150.645758 241.704149 
" clip-path="url(#p93852aecf0)" style="fill: #807f78; stroke: #807f78"/>
    <path d="M 151.489859 241.704149 
L 151.489859 230.899659 
L 152.33396 230.899659 
L 152.33396 241.704149 
L 151.489859 241.704149 
" clip-path="url(#p93852aecf0)" style="fill: #817f78; stroke: #817f78"/>
    <path d="M 152.33396 241.704149 
L 152.33396 230.899659 
L 153.178061 230.899659 
L 153.178061 241.704149 
L 152.33396 241.704149 
" clip-path="url(#p93852aecf0)" style="fill: #828079; stroke: #828079"/>
    <path d="M 153.178061 241.704149 
L 153.178061 230.899659 
L 154.022162 230.899659 
L 154.022162 241.704149 
L 153.178061 241.704149 
" clip-path="url(#p93852aecf0)" style="fill: #838179; stroke: #838179"/>
    <path d="M 154.022162 241.704149 
L 154.022162 230.899659 
L 154.866262 230.899659 
L 154.866262 241.704149 
L 154.022162 241.704149 
" clip-path="url(#p93852aecf0)" style="fill: #848279; stroke: #848279"/>
    <path d="M 154.866262 241.704149 
L 154.866262 230.899659 
L 155.710363 230.899659 
L 155.710363 241.704149 
L 154.866262 241.704149 
" clip-path="url(#p93852aecf0)" style="fill: #858279; stroke: #858279"/>
    <path d="M 155.710363 241.704149 
L 155.710363 230.899659 
L 156.554464 230.899659 
L 156.554464 241.704149 
L 155.710363 241.704149 
" clip-path="url(#p93852aecf0)" style="fill: #868379; stroke: #868379"/>
    <path d="M 156.554464 241.704149 
L 156.554464 230.899659 
L 157.398565 230.899659 
L 157.398565 241.704149 
L 156.554464 241.704149 
" clip-path="url(#p93852aecf0)" style="fill: #878478; stroke: #878478"/>
    <path d="M 157.398565 241.704149 
L 157.398565 230.899659 
L 158.242665 230.899659 
L 158.242665 241.704149 
L 157.398565 241.704149 
" clip-path="url(#p93852aecf0)" style="fill: #888578; stroke: #888578"/>
    <path d="M 158.242665 241.704149 
L 158.242665 230.899659 
L 159.086766 230.899659 
L 159.086766 241.704149 
L 158.242665 241.704149 
" clip-path="url(#p93852aecf0)" style="fill: #898578; stroke: #898578"/>
    <path d="M 159.086766 241.704149 
L 159.086766 230.899659 
L 159.930867 230.899659 
L 159.930867 241.704149 
L 159.086766 241.704149 
" clip-path="url(#p93852aecf0)" style="fill: #8a8678; stroke: #8a8678"/>
    <path d="M 159.930867 241.704149 
L 159.930867 230.899659 
L 160.774968 230.899659 
L 160.774968 241.704149 
L 159.930867 241.704149 
" clip-path="url(#p93852aecf0)" style="fill: #8b8778; stroke: #8b8778"/>
    <path d="M 160.774968 241.704149 
L 160.774968 230.899659 
L 161.619068 230.899659 
L 161.619068 241.704149 
L 160.774968 241.704149 
" clip-path="url(#p93852aecf0)" style="fill: #8c8878; stroke: #8c8878"/>
    <path d="M 161.619068 241.704149 
L 161.619068 230.899659 
L 162.463169 230.899659 
L 162.463169 241.704149 
L 161.619068 241.704149 
" clip-path="url(#p93852aecf0)" style="fill: #8d8878; stroke: #8d8878"/>
    <path d="M 162.463169 241.704149 
L 162.463169 230.899659 
L 163.30727 230.899659 
L 163.30727 241.704149 
L 162.463169 241.704149 
" clip-path="url(#p93852aecf0)" style="fill: #8e8978; stroke: #8e8978"/>
    <path d="M 163.30727 241.704149 
L 163.30727 230.899659 
L 164.151371 230.899659 
L 164.151371 241.704149 
L 163.30727 241.704149 
" clip-path="url(#p93852aecf0)" style="fill: #8f8a78; stroke: #8f8a78"/>
    <path d="M 164.151371 241.704149 
L 164.151371 230.899659 
L 164.995471 230.899659 
L 164.995471 241.704149 
L 164.151371 241.704149 
" clip-path="url(#p93852aecf0)" style="fill: #908b78; stroke: #908b78"/>
    <path d="M 164.995471 241.704149 
L 164.995471 230.899659 
L 165.839572 230.899659 
L 165.839572 241.704149 
L 164.995471 241.704149 
" clip-path="url(#p93852aecf0)" style="fill: #918b78; stroke: #918b78"/>
    <path d="M 165.839572 241.704149 
L 165.839572 230.899659 
L 166.683673 230.899659 
L 166.683673 241.704149 
L 165.839572 241.704149 
" clip-path="url(#p93852aecf0)" style="fill: #928c78; stroke: #928c78"/>
    <path d="M 166.683673 241.704149 
L 166.683673 230.899659 
L 167.527774 230.899659 
L 167.527774 241.704149 
L 166.683673 241.704149 
" clip-path="url(#p93852aecf0)" style="fill: #928d78; stroke: #928d78"/>
    <path d="M 167.527774 241.704149 
L 167.527774 230.899659 
L 168.371874 230.899659 
L 168.371874 241.704149 
L 167.527774 241.704149 
" clip-path="url(#p93852aecf0)" style="fill: #938e78; stroke: #938e78"/>
    <path d="M 168.371874 241.704149 
L 168.371874 230.899659 
L 169.215975 230.899659 
L 169.215975 241.704149 
L 168.371874 241.704149 
" clip-path="url(#p93852aecf0)" style="fill: #948e77; stroke: #948e77"/>
    <path d="M 169.215975 241.704149 
L 169.215975 230.899659 
L 170.060076 230.899659 
L 170.060076 241.704149 
L 169.215975 241.704149 
" clip-path="url(#p93852aecf0)" style="fill: #958f77; stroke: #958f77"/>
    <path d="M 170.060076 241.704149 
L 170.060076 230.899659 
L 170.904177 230.899659 
L 170.904177 241.704149 
L 170.060076 241.704149 
" clip-path="url(#p93852aecf0)" style="fill: #969077; stroke: #969077"/>
    <path d="M 170.904177 241.704149 
L 170.904177 230.899659 
L 171.748277 230.899659 
L 171.748277 241.704149 
L 170.904177 241.704149 
" clip-path="url(#p93852aecf0)" style="fill: #979177; stroke: #979177"/>
    <path d="M 171.748277 241.704149 
L 171.748277 230.899659 
L 172.592378 230.899659 
L 172.592378 241.704149 
L 171.748277 241.704149 
" clip-path="url(#p93852aecf0)" style="fill: #989277; stroke: #989277"/>
    <path d="M 172.592378 241.704149 
L 172.592378 230.899659 
L 173.436479 230.899659 
L 173.436479 241.704149 
L 172.592378 241.704149 
" clip-path="url(#p93852aecf0)" style="fill: #999277; stroke: #999277"/>
    <path d="M 173.436479 241.704149 
L 173.436479 230.899659 
L 174.28058 230.899659 
L 174.28058 241.704149 
L 173.436479 241.704149 
" clip-path="url(#p93852aecf0)" style="fill: #9a9376; stroke: #9a9376"/>
    <path d="M 174.28058 241.704149 
L 174.28058 230.899659 
L 175.12468 230.899659 
L 175.12468 241.704149 
L 174.28058 241.704149 
" clip-path="url(#p93852aecf0)" style="fill: #9b9476; stroke: #9b9476"/>
    <path d="M 175.12468 241.704149 
L 175.12468 230.899659 
L 175.968781 230.899659 
L 175.968781 241.704149 
L 175.12468 241.704149 
" clip-path="url(#p93852aecf0)" style="fill: #9c9576; stroke: #9c9576"/>
    <path d="M 175.968781 241.704149 
L 175.968781 230.899659 
L 176.812882 230.899659 
L 176.812882 241.704149 
L 175.968781 241.704149 
" clip-path="url(#p93852aecf0)" style="fill: #9d9576; stroke: #9d9576"/>
    <path d="M 176.812882 241.704149 
L 176.812882 230.899659 
L 177.656983 230.899659 
L 177.656983 241.704149 
L 176.812882 241.704149 
" clip-path="url(#p93852aecf0)" style="fill: #9e9676; stroke: #9e9676"/>
    <path d="M 177.656983 241.704149 
L 177.656983 230.899659 
L 178.501083 230.899659 
L 178.501083 241.704149 
L 177.656983 241.704149 
" clip-path="url(#p93852aecf0)" style="fill: #9f9775; stroke: #9f9775"/>
    <path d="M 178.501083 241.704149 
L 178.501083 230.899659 
L 179.345184 230.899659 
L 179.345184 241.704149 
L 178.501083 241.704149 
" clip-path="url(#p93852aecf0)" style="fill: #a09875; stroke: #a09875"/>
    <path d="M 179.345184 241.704149 
L 179.345184 230.899659 
L 180.189285 230.899659 
L 180.189285 241.704149 
L 179.345184 241.704149 
" clip-path="url(#p93852aecf0)" style="fill: #a19975; stroke: #a19975"/>
    <path d="M 180.189285 241.704149 
L 180.189285 230.899659 
L 181.033386 230.899659 
L 181.033386 241.704149 
L 180.189285 241.704149 
" clip-path="url(#p93852aecf0)" style="fill: #a29975; stroke: #a29975"/>
    <path d="M 181.033386 241.704149 
L 181.033386 230.899659 
L 181.877486 230.899659 
L 181.877486 241.704149 
L 181.033386 241.704149 
" clip-path="url(#p93852aecf0)" style="fill: #a39a74; stroke: #a39a74"/>
    <path d="M 181.877486 241.704149 
L 181.877486 230.899659 
L 182.721587 230.899659 
L 182.721587 241.704149 
L 181.877486 241.704149 
" clip-path="url(#p93852aecf0)" style="fill: #a49b74; stroke: #a49b74"/>
    <path d="M 182.721587 241.704149 
L 182.721587 230.899659 
L 183.565688 230.899659 
L 183.565688 241.704149 
L 182.721587 241.704149 
" clip-path="url(#p93852aecf0)" style="fill: #a59c74; stroke: #a59c74"/>
    <path d="M 183.565688 241.704149 
L 183.565688 230.899659 
L 184.409789 230.899659 
L 184.409789 241.704149 
L 183.565688 241.704149 
" clip-path="url(#p93852aecf0)" style="fill: #a69c74; stroke: #a69c74"/>
    <path d="M 184.409789 241.704149 
L 184.409789 230.899659 
L 185.253889 230.899659 
L 185.253889 241.704149 
L 184.409789 241.704149 
" clip-path="url(#p93852aecf0)" style="fill: #a79d73; stroke: #a79d73"/>
    <path d="M 185.253889 241.704149 
L 185.253889 230.899659 
L 186.09799 230.899659 
L 186.09799 241.704149 
L 185.253889 241.704149 
" clip-path="url(#p93852aecf0)" style="fill: #a89e73; stroke: #a89e73"/>
    <path d="M 186.09799 241.704149 
L 186.09799 230.899659 
L 186.942091 230.899659 
L 186.942091 241.704149 
L 186.09799 241.704149 
" clip-path="url(#p93852aecf0)" style="fill: #a99f73; stroke: #a99f73"/>
    <path d="M 186.942091 241.704149 
L 186.942091 230.899659 
L 187.786192 230.899659 
L 187.786192 241.704149 
L 186.942091 241.704149 
" clip-path="url(#p93852aecf0)" style="fill: #aaa073; stroke: #aaa073"/>
    <path d="M 187.786192 241.704149 
L 187.786192 230.899659 
L 188.630292 230.899659 
L 188.630292 241.704149 
L 187.786192 241.704149 
" clip-path="url(#p93852aecf0)" style="fill: #aba072; stroke: #aba072"/>
    <path d="M 188.630292 241.704149 
L 188.630292 230.899659 
L 189.474393 230.899659 
L 189.474393 241.704149 
L 188.630292 241.704149 
" clip-path="url(#p93852aecf0)" style="fill: #aca172; stroke: #aca172"/>
    <path d="M 189.474393 241.704149 
L 189.474393 230.899659 
L 190.318494 230.899659 
L 190.318494 241.704149 
L 189.474393 241.704149 
" clip-path="url(#p93852aecf0)" style="fill: #ada272; stroke: #ada272"/>
    <path d="M 190.318494 241.704149 
L 190.318494 230.899659 
L 191.162595 230.899659 
L 191.162595 241.704149 
L 190.318494 241.704149 
" clip-path="url(#p93852aecf0)" style="fill: #aea371; stroke: #aea371"/>
    <path d="M 191.162595 241.704149 
L 191.162595 230.899659 
L 192.006696 230.899659 
L 192.006696 241.704149 
L 191.162595 241.704149 
" clip-path="url(#p93852aecf0)" style="fill: #afa471; stroke: #afa471"/>
    <path d="M 192.006696 241.704149 
L 192.006696 230.899659 
L 192.850796 230.899659 
L 192.850796 241.704149 
L 192.006696 241.704149 
" clip-path="url(#p93852aecf0)" style="fill: #b0a571; stroke: #b0a571"/>
    <path d="M 192.850796 241.704149 
L 192.850796 230.899659 
L 193.694897 230.899659 
L 193.694897 241.704149 
L 192.850796 241.704149 
" clip-path="url(#p93852aecf0)" style="fill: #b1a570; stroke: #b1a570"/>
    <path d="M 193.694897 241.704149 
L 193.694897 230.899659 
L 194.538998 230.899659 
L 194.538998 241.704149 
L 193.694897 241.704149 
" clip-path="url(#p93852aecf0)" style="fill: #b3a670; stroke: #b3a670"/>
    <path d="M 194.538998 241.704149 
L 194.538998 230.899659 
L 195.383099 230.899659 
L 195.383099 241.704149 
L 194.538998 241.704149 
" clip-path="url(#p93852aecf0)" style="fill: #b4a76f; stroke: #b4a76f"/>
    <path d="M 195.383099 241.704149 
L 195.383099 230.899659 
L 196.227199 230.899659 
L 196.227199 241.704149 
L 195.383099 241.704149 
" clip-path="url(#p93852aecf0)" style="fill: #b5a86f; stroke: #b5a86f"/>
    <path d="M 196.227199 241.704149 
L 196.227199 230.899659 
L 197.0713 230.899659 
L 197.0713 241.704149 
L 196.227199 241.704149 
" clip-path="url(#p93852aecf0)" style="fill: #b6a96f; stroke: #b6a96f"/>
    <path d="M 197.0713 241.704149 
L 197.0713 230.899659 
L 197.915401 230.899659 
L 197.915401 241.704149 
L 197.0713 241.704149 
" clip-path="url(#p93852aecf0)" style="fill: #b7a96e; stroke: #b7a96e"/>
    <path d="M 197.915401 241.704149 
L 197.915401 230.899659 
L 198.759502 230.899659 
L 198.759502 241.704149 
L 197.915401 241.704149 
" clip-path="url(#p93852aecf0)" style="fill: #b8aa6e; stroke: #b8aa6e"/>
    <path d="M 198.759502 241.704149 
L 198.759502 230.899659 
L 199.603602 230.899659 
L 199.603602 241.704149 
L 198.759502 241.704149 
" clip-path="url(#p93852aecf0)" style="fill: #b9ab6d; stroke: #b9ab6d"/>
    <path d="M 199.603602 241.704149 
L 199.603602 230.899659 
L 200.447703 230.899659 
L 200.447703 241.704149 
L 199.603602 241.704149 
" clip-path="url(#p93852aecf0)" style="fill: #baac6d; stroke: #baac6d"/>
    <path d="M 200.447703 241.704149 
L 200.447703 230.899659 
L 201.291804 230.899659 
L 201.291804 241.704149 
L 200.447703 241.704149 
" clip-path="url(#p93852aecf0)" style="fill: #bbad6d; stroke: #bbad6d"/>
    <path d="M 201.291804 241.704149 
L 201.291804 230.899659 
L 202.135905 230.899659 
L 202.135905 241.704149 
L 201.291804 241.704149 
" clip-path="url(#p93852aecf0)" style="fill: #bcae6c; stroke: #bcae6c"/>
    <path d="M 202.135905 241.704149 
L 202.135905 230.899659 
L 202.980005 230.899659 
L 202.980005 241.704149 
L 202.135905 241.704149 
" clip-path="url(#p93852aecf0)" style="fill: #bdae6c; stroke: #bdae6c"/>
    <path d="M 202.980005 241.704149 
L 202.980005 230.899659 
L 203.824106 230.899659 
L 203.824106 241.704149 
L 202.980005 241.704149 
" clip-path="url(#p93852aecf0)" style="fill: #beaf6b; stroke: #beaf6b"/>
    <path d="M 203.824106 241.704149 
L 203.824106 230.899659 
L 204.668207 230.899659 
L 204.668207 241.704149 
L 203.824106 241.704149 
" clip-path="url(#p93852aecf0)" style="fill: #bfb06b; stroke: #bfb06b"/>
    <path d="M 204.668207 241.704149 
L 204.668207 230.899659 
L 205.512308 230.899659 
L 205.512308 241.704149 
L 204.668207 241.704149 
" clip-path="url(#p93852aecf0)" style="fill: #c0b16a; stroke: #c0b16a"/>
    <path d="M 205.512308 241.704149 
L 205.512308 230.899659 
L 206.356408 230.899659 
L 206.356408 241.704149 
L 205.512308 241.704149 
" clip-path="url(#p93852aecf0)" style="fill: #c1b26a; stroke: #c1b26a"/>
    <path d="M 206.356408 241.704149 
L 206.356408 230.899659 
L 207.200509 230.899659 
L 207.200509 241.704149 
L 206.356408 241.704149 
" clip-path="url(#p93852aecf0)" style="fill: #c2b369; stroke: #c2b369"/>
    <path d="M 207.200509 241.704149 
L 207.200509 230.899659 
L 208.04461 230.899659 
L 208.04461 241.704149 
L 207.200509 241.704149 
" clip-path="url(#p93852aecf0)" style="fill: #c3b369; stroke: #c3b369"/>
    <path d="M 208.04461 241.704149 
L 208.04461 230.899659 
L 208.888711 230.899659 
L 208.888711 241.704149 
L 208.04461 241.704149 
" clip-path="url(#p93852aecf0)" style="fill: #c4b468; stroke: #c4b468"/>
    <path d="M 208.888711 241.704149 
L 208.888711 230.899659 
L 209.732811 230.899659 
L 209.732811 241.704149 
L 208.888711 241.704149 
" clip-path="url(#p93852aecf0)" style="fill: #c5b568; stroke: #c5b568"/>
    <path d="M 209.732811 241.704149 
L 209.732811 230.899659 
L 210.576912 230.899659 
L 210.576912 241.704149 
L 209.732811 241.704149 
" clip-path="url(#p93852aecf0)" style="fill: #c6b667; stroke: #c6b667"/>
    <path d="M 210.576912 241.704149 
L 210.576912 230.899659 
L 211.421013 230.899659 
L 211.421013 241.704149 
L 210.576912 241.704149 
" clip-path="url(#p93852aecf0)" style="fill: #c7b767; stroke: #c7b767"/>
    <path d="M 211.421013 241.704149 
L 211.421013 230.899659 
L 212.265114 230.899659 
L 212.265114 241.704149 
L 211.421013 241.704149 
" clip-path="url(#p93852aecf0)" style="fill: #c8b866; stroke: #c8b866"/>
    <path d="M 212.265114 241.704149 
L 212.265114 230.899659 
L 213.109214 230.899659 
L 213.109214 241.704149 
L 212.265114 241.704149 
" clip-path="url(#p93852aecf0)" style="fill: #c9b965; stroke: #c9b965"/>
    <path d="M 213.109214 241.704149 
L 213.109214 230.899659 
L 213.953315 230.899659 
L 213.953315 241.704149 
L 213.109214 241.704149 
" clip-path="url(#p93852aecf0)" style="fill: #cbb965; stroke: #cbb965"/>
    <path d="M 213.953315 241.704149 
L 213.953315 230.899659 
L 214.797416 230.899659 
L 214.797416 241.704149 
L 213.953315 241.704149 
" clip-path="url(#p93852aecf0)" style="fill: #ccba64; stroke: #ccba64"/>
    <path d="M 214.797416 241.704149 
L 214.797416 230.899659 
L 215.641517 230.899659 
L 215.641517 241.704149 
L 214.797416 241.704149 
" clip-path="url(#p93852aecf0)" style="fill: #cdbb63; stroke: #cdbb63"/>
    <path d="M 215.641517 241.704149 
L 215.641517 230.899659 
L 216.485617 230.899659 
L 216.485617 241.704149 
L 215.641517 241.704149 
" clip-path="url(#p93852aecf0)" style="fill: #cebc63; stroke: #cebc63"/>
    <path d="M 216.485617 241.704149 
L 216.485617 230.899659 
L 217.329718 230.899659 
L 217.329718 241.704149 
L 216.485617 241.704149 
" clip-path="url(#p93852aecf0)" style="fill: #cfbd62; stroke: #cfbd62"/>
    <path d="M 217.329718 241.704149 
L 217.329718 230.899659 
L 218.173819 230.899659 
L 218.173819 241.704149 
L 217.329718 241.704149 
" clip-path="url(#p93852aecf0)" style="fill: #d0be62; stroke: #d0be62"/>
    <path d="M 218.173819 241.704149 
L 218.173819 230.899659 
L 219.01792 230.899659 
L 219.01792 241.704149 
L 218.173819 241.704149 
" clip-path="url(#p93852aecf0)" style="fill: #d1bf61; stroke: #d1bf61"/>
    <path d="M 219.01792 241.704149 
L 219.01792 230.899659 
L 219.86202 230.899659 
L 219.86202 241.704149 
L 219.01792 241.704149 
" clip-path="url(#p93852aecf0)" style="fill: #d2c060; stroke: #d2c060"/>
    <path d="M 219.86202 241.704149 
L 219.86202 230.899659 
L 220.706121 230.899659 
L 220.706121 241.704149 
L 219.86202 241.704149 
" clip-path="url(#p93852aecf0)" style="fill: #d3c05f; stroke: #d3c05f"/>
    <path d="M 220.706121 241.704149 
L 220.706121 230.899659 
L 221.550222 230.899659 
L 221.550222 241.704149 
L 220.706121 241.704149 
" clip-path="url(#p93852aecf0)" style="fill: #d4c15f; stroke: #d4c15f"/>
    <path d="M 221.550222 241.704149 
L 221.550222 230.899659 
L 222.394323 230.899659 
L 222.394323 241.704149 
L 221.550222 241.704149 
" clip-path="url(#p93852aecf0)" style="fill: #d5c25e; stroke: #d5c25e"/>
    <path d="M 222.394323 241.704149 
L 222.394323 230.899659 
L 223.238423 230.899659 
L 223.238423 241.704149 
L 222.394323 241.704149 
" clip-path="url(#p93852aecf0)" style="fill: #d6c35d; stroke: #d6c35d"/>
    <path d="M 223.238423 241.704149 
L 223.238423 230.899659 
L 224.082524 230.899659 
L 224.082524 241.704149 
L 223.238423 241.704149 
" clip-path="url(#p93852aecf0)" style="fill: #d7c45c; stroke: #d7c45c"/>
    <path d="M 224.082524 241.704149 
L 224.082524 230.899659 
L 224.926625 230.899659 
L 224.926625 241.704149 
L 224.082524 241.704149 
" clip-path="url(#p93852aecf0)" style="fill: #d9c55c; stroke: #d9c55c"/>
    <path d="M 224.926625 241.704149 
L 224.926625 230.899659 
L 225.770726 230.899659 
L 225.770726 241.704149 
L 224.926625 241.704149 
" clip-path="url(#p93852aecf0)" style="fill: #dac65b; stroke: #dac65b"/>
    <path d="M 225.770726 241.704149 
L 225.770726 230.899659 
L 226.614826 230.899659 
L 226.614826 241.704149 
L 225.770726 241.704149 
" clip-path="url(#p93852aecf0)" style="fill: #dbc75a; stroke: #dbc75a"/>
    <path d="M 226.614826 241.704149 
L 226.614826 230.899659 
L 227.458927 230.899659 
L 227.458927 241.704149 
L 226.614826 241.704149 
" clip-path="url(#p93852aecf0)" style="fill: #dcc859; stroke: #dcc859"/>
    <path d="M 227.458927 241.704149 
L 227.458927 230.899659 
L 228.303028 230.899659 
L 228.303028 241.704149 
L 227.458927 241.704149 
" clip-path="url(#p93852aecf0)" style="fill: #ddc858; stroke: #ddc858"/>
    <path d="M 228.303028 241.704149 
L 228.303028 230.899659 
L 229.147129 230.899659 
L 229.147129 241.704149 
L 228.303028 241.704149 
" clip-path="url(#p93852aecf0)" style="fill: #dec958; stroke: #dec958"/>
    <path d="M 229.147129 241.704149 
L 229.147129 230.899659 
L 229.99123 230.899659 
L 229.99123 241.704149 
L 229.147129 241.704149 
" clip-path="url(#p93852aecf0)" style="fill: #dfca57; stroke: #dfca57"/>
    <path d="M 229.99123 241.704149 
L 229.99123 230.899659 
L 230.83533 230.899659 
L 230.83533 241.704149 
L 229.99123 241.704149 
" clip-path="url(#p93852aecf0)" style="fill: #e0cb56; stroke: #e0cb56"/>
    <path d="M 230.83533 241.704149 
L 230.83533 230.899659 
L 231.679431 230.899659 
L 231.679431 241.704149 
L 230.83533 241.704149 
" clip-path="url(#p93852aecf0)" style="fill: #e1cc55; stroke: #e1cc55"/>
    <path d="M 231.679431 241.704149 
L 231.679431 230.899659 
L 232.523532 230.899659 
L 232.523532 241.704149 
L 231.679431 241.704149 
" clip-path="url(#p93852aecf0)" style="fill: #e2cd54; stroke: #e2cd54"/>
    <path d="M 232.523532 241.704149 
L 232.523532 230.899659 
L 233.367633 230.899659 
L 233.367633 241.704149 
L 232.523532 241.704149 
" clip-path="url(#p93852aecf0)" style="fill: #e4ce53; stroke: #e4ce53"/>
    <path d="M 233.367633 241.704149 
L 233.367633 230.899659 
L 234.211733 230.899659 
L 234.211733 241.704149 
L 233.367633 241.704149 
" clip-path="url(#p93852aecf0)" style="fill: #e5cf52; stroke: #e5cf52"/>
    <path d="M 234.211733 241.704149 
L 234.211733 230.899659 
L 235.055834 230.899659 
L 235.055834 241.704149 
L 234.211733 241.704149 
" clip-path="url(#p93852aecf0)" style="fill: #e6d051; stroke: #e6d051"/>
    <path d="M 235.055834 241.704149 
L 235.055834 230.899659 
L 235.899935 230.899659 
L 235.899935 241.704149 
L 235.055834 241.704149 
" clip-path="url(#p93852aecf0)" style="fill: #e7d150; stroke: #e7d150"/>
    <path d="M 235.899935 241.704149 
L 235.899935 230.899659 
L 236.744036 230.899659 
L 236.744036 241.704149 
L 235.899935 241.704149 
" clip-path="url(#p93852aecf0)" style="fill: #e8d24f; stroke: #e8d24f"/>
    <path d="M 236.744036 241.704149 
L 236.744036 230.899659 
L 237.588136 230.899659 
L 237.588136 241.704149 
L 236.744036 241.704149 
" clip-path="url(#p93852aecf0)" style="fill: #e9d34e; stroke: #e9d34e"/>
    <path d="M 237.588136 241.704149 
L 237.588136 230.899659 
L 238.432237 230.899659 
L 238.432237 241.704149 
L 237.588136 241.704149 
" clip-path="url(#p93852aecf0)" style="fill: #ead34c; stroke: #ead34c"/>
    <path d="M 238.432237 241.704149 
L 238.432237 230.899659 
L 239.276338 230.899659 
L 239.276338 241.704149 
L 238.432237 241.704149 
" clip-path="url(#p93852aecf0)" style="fill: #ebd44b; stroke: #ebd44b"/>
    <path d="M 239.276338 241.704149 
L 239.276338 230.899659 
L 240.120439 230.899659 
L 240.120439 241.704149 
L 239.276338 241.704149 
" clip-path="url(#p93852aecf0)" style="fill: #edd54a; stroke: #edd54a"/>
    <path d="M 240.120439 241.704149 
L 240.120439 230.899659 
L 240.964539 230.899659 
L 240.964539 241.704149 
L 240.120439 241.704149 
" clip-path="url(#p93852aecf0)" style="fill: #eed649; stroke: #eed649"/>
    <path d="M 240.964539 241.704149 
L 240.964539 230.899659 
L 241.80864 230.899659 
L 241.80864 241.704149 
L 240.964539 241.704149 
" clip-path="url(#p93852aecf0)" style="fill: #efd748; stroke: #efd748"/>
    <path d="M 241.80864 241.704149 
L 241.80864 230.899659 
L 242.652741 230.899659 
L 242.652741 241.704149 
L 241.80864 241.704149 
" clip-path="url(#p93852aecf0)" style="fill: #f0d846; stroke: #f0d846"/>
    <path d="M 242.652741 241.704149 
L 242.652741 230.899659 
L 243.496842 230.899659 
L 243.496842 241.704149 
L 242.652741 241.704149 
" clip-path="url(#p93852aecf0)" style="fill: #f1d945; stroke: #f1d945"/>
    <path d="M 243.496842 241.704149 
L 243.496842 230.899659 
L 244.340942 230.899659 
L 244.340942 241.704149 
L 243.496842 241.704149 
" clip-path="url(#p93852aecf0)" style="fill: #f2da44; stroke: #f2da44"/>
    <path d="M 244.340942 241.704149 
L 244.340942 230.899659 
L 245.185043 230.899659 
L 245.185043 241.704149 
L 244.340942 241.704149 
" clip-path="url(#p93852aecf0)" style="fill: #f3db42; stroke: #f3db42"/>
    <path d="M 245.185043 241.704149 
L 245.185043 230.899659 
L 246.029144 230.899659 
L 246.029144 241.704149 
L 245.185043 241.704149 
" clip-path="url(#p93852aecf0)" style="fill: #f5dc41; stroke: #f5dc41"/>
    <path d="M 246.029144 241.704149 
L 246.029144 230.899659 
L 246.873245 230.899659 
L 246.873245 241.704149 
L 246.029144 241.704149 
" clip-path="url(#p93852aecf0)" style="fill: #f6dd3f; stroke: #f6dd3f"/>
    <path d="M 246.873245 241.704149 
L 246.873245 230.899659 
L 247.717345 230.899659 
L 247.717345 241.704149 
L 246.873245 241.704149 
" clip-path="url(#p93852aecf0)" style="fill: #f7de3e; stroke: #f7de3e"/>
    <path d="M 247.717345 241.704149 
L 247.717345 230.899659 
L 248.561446 230.899659 
L 248.561446 241.704149 
L 247.717345 241.704149 
" clip-path="url(#p93852aecf0)" style="fill: #f8df3c; stroke: #f8df3c"/>
    <path d="M 248.561446 241.704149 
L 248.561446 230.899659 
L 249.405547 230.899659 
L 249.405547 241.704149 
L 248.561446 241.704149 
" clip-path="url(#p93852aecf0)" style="fill: #f9e03a; stroke: #f9e03a"/>
    <path d="M 249.405547 241.704149 
L 249.405547 230.899659 
L 250.249648 230.899659 
L 250.249648 241.704149 
L 249.405547 241.704149 
" clip-path="url(#p93852aecf0)" style="fill: #fbe138; stroke: #fbe138"/>
    <path d="M 250.249648 241.704149 
L 250.249648 230.899659 
L 251.093748 230.899659 
L 251.093748 241.704149 
L 250.249648 241.704149 
" clip-path="url(#p93852aecf0)" style="fill: #fce236; stroke: #fce236"/>
    <path d="M 251.093748 241.704149 
L 251.093748 230.899659 
L 251.937849 230.899659 
L 251.937849 241.704149 
L 251.093748 241.704149 
" clip-path="url(#p93852aecf0)" style="fill: #fde334; stroke: #fde334"/>
    <path d="M 251.937849 241.704149 
L 251.937849 230.899659 
L 252.78195 230.899659 
L 252.78195 241.704149 
L 251.937849 241.704149 
" clip-path="url(#p93852aecf0)" style="fill: #fee434; stroke: #fee434"/>
    <path d="M 252.78195 241.704149 
L 252.78195 230.899659 
L 253.626051 230.899659 
L 253.626051 241.704149 
L 252.78195 241.704149 
" clip-path="url(#p93852aecf0)" style="fill: #fee535; stroke: #fee535"/>
    <path d="M 253.626051 241.704149 
L 253.626051 230.899659 
L 254.470151 230.899659 
L 254.470151 241.704149 
L 253.626051 241.704149 
" clip-path="url(#p93852aecf0)" style="fill: #fee636; stroke: #fee636"/>
    <path d="M 254.470151 241.704149 
L 254.470151 230.899659 
L 255.314252 230.899659 
L 255.314252 241.704149 
L 254.470151 241.704149 
" clip-path="url(#p93852aecf0)" style="fill: #fee838; stroke: #fee838"/>
   </g>
   <g id="matplotlib.axis_5">
    <g id="xtick_13">
     <g id="line2d_32">
      <g>
       <use xlink:href="#m029f234e59" x="39.224459" y="241.704149" style="stroke: #000000; stroke-width: 0.8"/>
      </g>
     </g>
     <g id="text_35">
      <text style="font-size: 7px; font-family: 'Microsoft YaHei'; text-anchor: middle" x="39.224459" y="254.388231" transform="rotate(-0 39.224459 254.388231)">0</text>
     </g>
    </g>
    <g id="xtick_14">
     <g id="line2d_33">
      <g>
       <use xlink:href="#m029f234e59" x="82.442417" y="241.704149" style="stroke: #000000; stroke-width: 0.8"/>
      </g>
     </g>
     <g id="text_36">
      <text style="font-size: 7px; font-family: 'Microsoft YaHei'; text-anchor: middle" x="82.442417" y="254.388231" transform="rotate(-0 82.442417 254.388231)">20</text>
     </g>
    </g>
    <g id="xtick_15">
     <g id="line2d_34">
      <g>
       <use xlink:href="#m029f234e59" x="125.660376" y="241.704149" style="stroke: #000000; stroke-width: 0.8"/>
      </g>
     </g>
     <g id="text_37">
      <text style="font-size: 7px; font-family: 'Microsoft YaHei'; text-anchor: middle" x="125.660376" y="254.388231" transform="rotate(-0 125.660376 254.388231)">40</text>
     </g>
    </g>
    <g id="xtick_16">
     <g id="line2d_35">
      <g>
       <use xlink:href="#m029f234e59" x="168.878335" y="241.704149" style="stroke: #000000; stroke-width: 0.8"/>
      </g>
     </g>
     <g id="text_38">
      <text style="font-size: 7px; font-family: 'Microsoft YaHei'; text-anchor: middle" x="168.878335" y="254.388231" transform="rotate(-0 168.878335 254.388231)">60</text>
     </g>
    </g>
    <g id="xtick_17">
     <g id="line2d_36">
      <g>
       <use xlink:href="#m029f234e59" x="212.096294" y="241.704149" style="stroke: #000000; stroke-width: 0.8"/>
      </g>
     </g>
     <g id="text_39">
      <text style="font-size: 7px; font-family: 'Microsoft YaHei'; text-anchor: middle" x="212.096294" y="254.388231" transform="rotate(-0 212.096294 254.388231)">80</text>
     </g>
    </g>
    <g id="xtick_18">
     <g id="line2d_37">
      <g>
       <use xlink:href="#m029f234e59" x="255.314252" y="241.704149" style="stroke: #000000; stroke-width: 0.8"/>
      </g>
     </g>
     <g id="text_40">
      <text style="font-size: 7px; font-family: 'Microsoft YaHei'; text-anchor: middle" x="255.314252" y="254.388231" transform="rotate(-0 255.314252 254.388231)">100</text>
     </g>
    </g>
    <g id="text_41">
     <text style="font-size: 8px; font-family: 'Microsoft YaHei'; text-anchor: middle" x="147.269355" y="266.853407" transform="rotate(-0 147.269355 266.853407)">净 P FE / %</text>
    </g>
   </g>
   <g id="matplotlib.axis_6"/>
   <g id="LineCollection_1"/>
   <g id="patch_10">
    <path d="M 39.224459 241.704149 
L 39.224459 236.301904 
L 39.224459 230.899659 
L 255.314252 230.899659 
L 255.314252 236.301904 
L 255.314252 241.704149 
L 39.224459 241.704149 
z
" style="fill: none; stroke: #000000; stroke-width: 0.7; stroke-linejoin: miter; stroke-linecap: square"/>
   </g>
  </g>
  <g id="text_42">
   <text style="font-size: 10px; font-family: 'Microsoft YaHei'; text-anchor: middle" x="259.2" y="11.403365" transform="rotate(-0 259.2 11.403365)">假设反应网络：A 到 P / A 到 B / P 到 D</text>
  </g>
 </g>
 <defs>
  <clipPath id="pda4df9793b">
   <rect x="39.224459" y="33.500837" width="216.089793" height="137.554327"/>
  </clipPath>
  <clipPath id="pfd3a1c6506">
   <rect x="299.309967" y="33.500837" width="216.089793" height="137.554327"/>
  </clipPath>
  <clipPath id="p93852aecf0">
   <rect x="39.224459" y="230.899659" width="216.089793" height="10.80449"/>
  </clipPath>
 </defs>
</svg>
